<?xml version="1.0" encoding="utf-8"?>
<!-- Generator: Adobe Illustrator 22.1.0, SVG Export Plug-In . SVG Version: 6.00 Build 0)  -->
<svg version="1.1" id="Layer_1" xmlns="http://www.w3.org/2000/svg" xmlns:xlink="http://www.w3.org/1999/xlink" x="0px" y="0px"
	 viewBox="0 0 208.2 51.7" style="enable-background:new 0 0 208.2 51.7;" xml:space="preserve">
<style type="text/css">
	.st0{fill:#FFDE96;}
	.st1{fill:#FDF4DF;}
	.st2{fill:#A56D5B;}
	.st3{fill:#F9C4D7;}
</style>
<path class="st0" d="M69,15.7c0-0.9,0.3-1.6,0.8-2.2c0.5-0.6,1.2-0.8,2.2-0.8c0.9,0,1.6,0.3,2.2,0.8c0.5,0.6,0.8,1.3,0.8,2.2v13.8
	c0,1-0.3,1.8-1,2.2s-1.5,0.7-2.4,0.7c-0.4,0-0.8,0-1.1-0.1c-0.3-0.1-0.6-0.2-0.9-0.4s-0.6-0.4-0.8-0.7c-0.3-0.3-0.5-0.7-0.8-1.2
	l-5-8.2h-0.1v7.4c0,1-0.3,1.8-0.8,2.3c-0.5,0.5-1.2,0.8-2.2,0.8s-1.7-0.3-2.2-0.8C57.2,31,57,30.2,57,29.2V15.9c0-1,0.3-1.8,0.9-2.4
	c0.6-0.6,1.4-0.8,2.6-0.8c0.7,0,1.4,0.1,1.9,0.4c0.5,0.3,1,0.8,1.4,1.4l5.3,9H69V15.7z"/>
<path class="st1" d="M78.2,20.6c0-0.9,0.3-1.6,0.8-2c0.5-0.4,1.1-0.6,1.9-0.6c0.8,0,1.4,0.2,1.9,0.6c0.5,0.4,0.8,1.1,0.8,2v9
	c0,0.9-0.3,1.6-0.8,2c-0.5,0.4-1.1,0.6-1.9,0.6c-0.8,0-1.4-0.2-1.9-0.6c-0.5-0.4-0.8-1.1-0.8-2V20.6z M78.3,14.4
	c0-0.7,0.2-1.3,0.7-1.8c0.5-0.5,1.1-0.7,1.8-0.7c0.7,0,1.3,0.2,1.8,0.7c0.5,0.5,0.7,1.1,0.7,1.8c0,0.7-0.2,1.3-0.7,1.8
	c-0.5,0.5-1.1,0.7-1.8,0.7c-0.7,0-1.3-0.2-1.8-0.7C78.6,15.7,78.3,15.1,78.3,14.4z"/>
<path class="st1" d="M86,25.1c0-1.2,0.2-2.3,0.6-3.2c0.4-0.9,0.9-1.6,1.6-2.2c0.7-0.6,1.5-1,2.4-1.3s1.9-0.4,3-0.4
	c0.9,0,1.8,0.1,2.6,0.3c0.8,0.2,1.4,0.5,2,0.8c0.5,0.3,1,0.7,1.3,1.2c0.3,0.4,0.4,0.9,0.4,1.4c0,0.6-0.2,1.1-0.6,1.4
	c-0.4,0.4-0.8,0.5-1.4,0.5c-0.3,0-0.7-0.1-0.9-0.3c-0.3-0.2-0.5-0.4-0.8-0.7c-0.3-0.2-0.6-0.5-0.9-0.7c-0.3-0.2-0.7-0.3-1.2-0.3
	c-0.6,0-1,0.1-1.4,0.3c-0.3,0.2-0.6,0.5-0.8,0.8c-0.2,0.3-0.3,0.7-0.4,1.1c-0.1,0.4-0.1,0.8-0.1,1.1c0,0.5,0,0.9,0.1,1.3
	c0.1,0.4,0.2,0.8,0.4,1.1c0.2,0.3,0.4,0.6,0.8,0.8c0.3,0.2,0.7,0.3,1.2,0.3c0.5,0,0.8-0.1,1.2-0.3c0.3-0.2,0.7-0.4,1-0.7
	s0.6-0.5,0.9-0.7c0.3-0.2,0.6-0.3,1-0.3c0.6,0,1.1,0.2,1.5,0.6c0.3,0.4,0.5,0.9,0.5,1.3c0,0.3-0.1,0.6-0.3,1c-0.2,0.4-0.6,0.8-1,1.2
	c-0.5,0.4-1.1,0.7-1.9,1s-1.8,0.4-3,0.4c-1.1,0-2.1-0.1-3-0.4s-1.7-0.7-2.4-1.3c-0.7-0.6-1.2-1.3-1.6-2.2C86.2,27.4,86,26.3,86,25.1
	z"/>
<path class="st1" d="M116.6,29.2c0,0.4-0.1,0.7-0.4,1.1c-0.2,0.4-0.6,0.7-1.2,1s-1.3,0.5-2.2,0.7s-2,0.3-3.3,0.3
	c-1.1,0-2.1-0.1-3-0.4s-1.7-0.7-2.4-1.3c-0.7-0.6-1.2-1.3-1.6-2.2c-0.4-0.9-0.6-2-0.6-3.2c0-1.2,0.2-2.3,0.6-3.2
	c0.4-0.9,0.9-1.6,1.6-2.2c0.7-0.6,1.5-1,2.4-1.3s1.9-0.4,3-0.4c1.5,0,2.7,0.2,3.8,0.7c1,0.5,1.8,1,2.4,1.6c0.6,0.6,1,1.3,1.3,2
	c0.3,0.7,0.4,1.3,0.4,1.8c0,0.8-0.2,1.4-0.6,1.7c-0.4,0.3-1,0.5-1.9,0.5h-7.6c0.1,0.9,0.3,1.6,0.8,2.1c0.5,0.5,1.2,0.8,2,0.8
	c0.5,0,0.9-0.1,1.3-0.3c0.4-0.2,0.8-0.4,1.2-0.6c0.4-0.2,0.7-0.4,1.1-0.6c0.4-0.2,0.7-0.3,1.2-0.3c0.5,0,0.9,0.2,1.2,0.6
	C116.5,28.4,116.6,28.8,116.6,29.2z M112.4,23.6c0-0.5-0.1-0.9-0.2-1.2c-0.1-0.3-0.3-0.6-0.5-0.8c-0.2-0.2-0.5-0.4-0.8-0.4
	c-0.3-0.1-0.6-0.1-1-0.1c-0.3,0-0.6,0-0.9,0.1c-0.3,0.1-0.6,0.2-0.8,0.4c-0.2,0.2-0.4,0.5-0.6,0.8c-0.2,0.3-0.2,0.7-0.3,1.2H112.4z"
	/>
<path class="st0" d="M119.3,25.1c0-1.2,0.2-2.3,0.6-3.2c0.4-0.9,0.9-1.6,1.6-2.2c0.7-0.6,1.5-1,2.4-1.3s1.9-0.4,3-0.4
	c0.9,0,1.8,0.1,2.6,0.3c0.8,0.2,1.4,0.5,2,0.8c0.5,0.3,1,0.7,1.3,1.2c0.3,0.4,0.4,0.9,0.4,1.4c0,0.6-0.2,1.1-0.6,1.4
	c-0.4,0.4-0.8,0.5-1.4,0.5c-0.3,0-0.7-0.1-0.9-0.3c-0.3-0.2-0.5-0.4-0.8-0.7c-0.3-0.2-0.6-0.5-0.9-0.7c-0.3-0.2-0.7-0.3-1.2-0.3
	c-0.6,0-1,0.1-1.4,0.3c-0.3,0.2-0.6,0.5-0.8,0.8c-0.2,0.3-0.3,0.7-0.4,1.1c-0.1,0.4-0.1,0.8-0.1,1.1c0,0.5,0,0.9,0.1,1.3
	c0.1,0.4,0.2,0.8,0.4,1.1c0.2,0.3,0.4,0.6,0.8,0.8c0.3,0.2,0.7,0.3,1.2,0.3c0.5,0,0.8-0.1,1.2-0.3c0.3-0.2,0.7-0.4,1-0.7
	s0.6-0.5,0.9-0.7c0.3-0.2,0.6-0.3,1-0.3c0.6,0,1.1,0.2,1.5,0.6c0.3,0.4,0.5,0.9,0.5,1.3c0,0.3-0.1,0.6-0.3,1c-0.2,0.4-0.6,0.8-1,1.2
	c-0.5,0.4-1.1,0.7-1.9,1s-1.8,0.4-3,0.4c-1.1,0-2.1-0.1-3-0.4s-1.7-0.7-2.4-1.3c-0.7-0.6-1.2-1.3-1.6-2.2
	C119.5,27.4,119.3,26.3,119.3,25.1z"/>
<path class="st0" d="M135.6,20.6c0-0.9,0.2-1.6,0.7-2c0.5-0.4,1-0.6,1.7-0.6s1.2,0.2,1.7,0.6s0.7,1.1,0.7,2.2v1h0.1
	c0.5-1.3,1-2.2,1.5-2.8s1.2-1,2-1c0.4,0,0.8,0.1,1,0.2c0.3,0.1,0.5,0.3,0.7,0.6c0.2,0.2,0.3,0.5,0.4,0.8c0.1,0.3,0.1,0.6,0.1,0.9
	c0,0.7-0.1,1.2-0.4,1.6c-0.3,0.4-0.6,0.7-1.1,0.8l-1.5,0.4c-0.4,0.1-0.7,0.2-1,0.3s-0.5,0.3-0.7,0.5c-0.2,0.2-0.3,0.5-0.4,0.8
	c-0.1,0.3-0.2,0.7-0.2,1.1v3.7c0,0.9-0.3,1.6-0.8,2c-0.5,0.4-1.1,0.6-1.9,0.6c-0.8,0-1.4-0.2-1.9-0.6c-0.5-0.4-0.8-1.1-0.8-2V20.6z"
	/>
<path class="st0" d="M161.8,29.2c0,0.4-0.1,0.7-0.4,1.1c-0.2,0.4-0.6,0.7-1.2,1s-1.3,0.5-2.2,0.7s-2,0.3-3.3,0.3
	c-1.1,0-2.1-0.1-3-0.4s-1.7-0.7-2.4-1.3c-0.7-0.6-1.2-1.3-1.6-2.2c-0.4-0.9-0.6-2-0.6-3.2c0-1.2,0.2-2.3,0.6-3.2
	c0.4-0.9,0.9-1.6,1.6-2.2c0.7-0.6,1.5-1,2.4-1.3s1.9-0.4,3-0.4c1.5,0,2.7,0.2,3.8,0.7c1,0.5,1.8,1,2.4,1.6c0.6,0.6,1,1.3,1.3,2
	c0.3,0.7,0.4,1.3,0.4,1.8c0,0.8-0.2,1.4-0.6,1.7c-0.4,0.3-1,0.5-1.9,0.5h-7.6c0.1,0.9,0.3,1.6,0.8,2.1c0.5,0.5,1.2,0.8,2,0.8
	c0.5,0,0.9-0.1,1.3-0.3c0.4-0.2,0.8-0.4,1.2-0.6c0.4-0.2,0.7-0.4,1.1-0.6c0.4-0.2,0.7-0.3,1.2-0.3c0.5,0,0.9,0.2,1.2,0.6
	C161.7,28.4,161.8,28.8,161.8,29.2z M157.6,23.6c0-0.5-0.1-0.9-0.2-1.2c-0.1-0.3-0.3-0.6-0.5-0.8c-0.2-0.2-0.5-0.4-0.8-0.4
	c-0.3-0.1-0.6-0.1-1-0.1c-0.3,0-0.6,0-0.9,0.1c-0.3,0.1-0.6,0.2-0.8,0.4c-0.2,0.2-0.4,0.5-0.6,0.8c-0.2,0.3-0.2,0.7-0.3,1.2H157.6z"
	/>
<path class="st0" d="M179.5,27.9c0,0.5,0,0.9,0.1,1.3c0.1,0.4,0.1,0.8,0.1,1.1c0,0.3-0.1,0.6-0.2,0.9c-0.1,0.2-0.3,0.4-0.6,0.6
	c-0.2,0.2-0.5,0.3-0.8,0.3c-0.3,0.1-0.6,0.1-0.9,0.1c-0.9,0-1.6-0.2-2-0.6c-0.4-0.4-0.6-0.9-0.7-1.5c-0.5,0.8-1.2,1.3-2.1,1.7
	c-0.9,0.3-1.8,0.5-2.7,0.5c-0.7,0-1.4-0.1-2-0.2c-0.6-0.2-1.2-0.4-1.6-0.7c-0.5-0.3-0.8-0.8-1.1-1.3c-0.3-0.5-0.4-1.2-0.4-1.9
	c0-0.6,0.1-1.1,0.3-1.6c0.2-0.5,0.6-0.9,1.1-1.3c0.5-0.4,1.2-0.7,2.1-0.9c0.9-0.2,2-0.4,3.3-0.5c1-0.1,1.7-0.2,2.2-0.4
	c0.4-0.2,0.7-0.5,0.7-1c0-0.9-0.7-1.3-2.2-1.3c-0.6,0-1.1,0.1-1.4,0.3s-0.8,0.4-1.1,0.6c-0.3,0.2-0.7,0.4-1,0.6s-0.7,0.3-1.2,0.3
	c-0.5,0-1-0.1-1.3-0.4c-0.3-0.3-0.4-0.7-0.4-1.2c0-0.5,0.2-1,0.5-1.4c0.3-0.4,0.8-0.8,1.4-1c0.6-0.3,1.3-0.5,2.1-0.7
	c0.8-0.2,1.7-0.2,2.6-0.2c0.7,0,1.5,0.1,2.3,0.2c0.8,0.1,1.6,0.3,2.3,0.6c0.7,0.3,1.3,0.7,1.8,1.2c0.5,0.5,0.7,1.2,0.7,2V27.9z
	 M174.3,25.8c-0.2,0.2-0.4,0.4-0.7,0.5c-0.3,0.1-0.6,0.2-0.9,0.2c-0.3,0.1-0.6,0.1-1,0.1c-0.3,0-0.6,0.1-0.8,0.2
	c-0.2,0.1-0.4,0.2-0.5,0.4c-0.1,0.2-0.2,0.4-0.2,0.7c0,0.4,0.2,0.7,0.5,1c0.3,0.2,0.7,0.4,1.1,0.4c0.4,0,0.7-0.1,1-0.2
	c0.3-0.1,0.6-0.2,0.8-0.4c0.2-0.2,0.4-0.4,0.5-0.6c0.1-0.2,0.2-0.5,0.2-0.7V25.8z"/>
<path class="st0" d="M200.2,24.4c0-0.9-0.1-1.4-0.4-1.8c-0.3-0.3-0.7-0.5-1.3-0.5c-0.5,0-0.9,0.2-1.2,0.7c-0.4,0.4-0.6,1-0.6,1.8v5
	c0,0.9-0.3,1.6-0.8,2s-1.1,0.6-1.9,0.6c-0.8,0-1.4-0.2-1.9-0.6s-0.8-1.1-0.8-2v-5.1c0-0.9-0.1-1.4-0.4-1.8s-0.7-0.5-1.3-0.5
	c-0.5,0-0.9,0.2-1.2,0.7c-0.4,0.4-0.6,1-0.6,1.8v5c0,0.9-0.3,1.6-0.8,2c-0.5,0.4-1.1,0.6-1.9,0.6c-0.8,0-1.4-0.2-1.9-0.6
	c-0.5-0.4-0.8-1.1-0.8-2v-9.1c0-0.8,0.2-1.5,0.6-1.9c0.4-0.4,1.1-0.7,2-0.7c0.8,0,1.4,0.2,1.7,0.7c0.4,0.4,0.6,1.1,0.7,1.9h0.1
	c0.5-0.8,1-1.4,1.8-1.9c0.7-0.4,1.6-0.7,2.7-0.7c0.4,0,0.9,0.1,1.3,0.2c0.4,0.1,0.8,0.3,1.2,0.5c0.4,0.2,0.7,0.5,1,0.8
	c0.3,0.3,0.5,0.7,0.6,1.2c0.6-1,1.2-1.6,2-2c0.7-0.4,1.6-0.6,2.6-0.6c0.9,0,1.7,0.1,2.4,0.4c0.7,0.3,1.2,0.6,1.6,1.1
	c0.4,0.5,0.7,1,0.9,1.7c0.2,0.6,0.3,1.3,0.3,2.1v6.4c0,0.9-0.3,1.6-0.8,2c-0.5,0.4-1.1,0.6-1.9,0.6c-0.8,0-1.4-0.2-1.9-0.6
	c-0.5-0.4-0.8-1.1-0.8-2V24.4z"/>
<path class="st0" d="M29.8,32c0.8,0,1.6-0.1,2.4-0.3l-8.5,16.6c-0.1,0.2-0.4,0.3-0.6,0.3c-0.2,0-0.4-0.1-0.6-0.3L14,31.6
	c0.9,0.2,1.7,0.4,2.6,0.4c2.5,0,4.8-1,6.6-2.6C25,31,27.3,32,29.8,32z"/>
<path class="st2" d="M21,26.2c0.3,0.7,0.7,1.4,1.2,2.1c-1.5,1.4-3.5,2.2-5.6,2.2c-1.4,0-2.7-0.3-3.9-1c-0.4-0.2-0.7-0.4-1-0.6
	c-2-1.5-3.3-4-3.3-6.6c0-3.3,2-6.3,5-7.5c1.2,2.9,3.7,5.2,6.8,5.9c-0.1,0.5-0.2,1.1-0.2,1.7C20.2,23.7,20.4,25,21,26.2z"/>
<path class="st1" d="M38,22.3c0,2.8-1.4,5.3-3.6,6.8c-0.3,0.2-0.6,0.4-1,0.5c-1.1,0.5-2.3,0.8-3.6,0.8c-2.2,0-4.4-0.9-5.9-2.5
	l-0.1-0.1c0,0-0.1-0.1-0.1-0.1c-0.4-0.5-0.8-1-1.1-1.5c-0.7-1.2-1-2.5-1-3.9c0-0.5,0.1-1,0.1-1.5c0.2,0,0.4,0,0.7,0
	c1,0,2-0.1,2.9-0.5c2.9-0.9,5.3-3.2,6.3-6.1C35.3,15.2,38,18.5,38,22.3z"/>
<path class="st3" d="M30.6,11.2c0,0.8-0.1,1.5-0.3,2.2c-0.7,2.7-2.8,4.8-5.4,5.6c-0.8,0.2-1.6,0.4-2.4,0.4c-0.4,0-0.7,0-1.1-0.1
	c-3.2-0.4-5.8-2.7-6.8-5.7c-0.2-0.8-0.4-1.6-0.4-2.4c0-4.5,3.7-8.2,8.2-8.2S30.6,6.7,30.6,11.2z"/>
</svg>
