<?xml version="1.0" encoding="utf-8"?>
<!-- Generator: Adobe Illustrator 22.1.0, SVG Export Plug-In . SVG Version: 6.00 Build 0)  -->
<svg version="1.1" id="Layer_1" xmlns="http://www.w3.org/2000/svg" xmlns:xlink="http://www.w3.org/1999/xlink" x="0px" y="0px"
	 viewBox="0 0 100 100" style="enable-background:new 0 0 100 100;" xml:space="preserve">
<style type="text/css">
	.st0{fill:#FFFFFF;}
	.st1{fill:#E2E2E2;}
</style>
<path d="M81.8,21.6l-4.5-2.9c-5-3.3-19.2,9.6-31.5,28.7C33.4,66.6,27.4,84.7,32.5,88l4.5,2.9c5,3.3,19.2-9.6,31.5-28.7
	C80.9,43,86.9,24.9,81.8,21.6z"/>
<path class="st0" d="M72.9,20.3l-4.5-2.9c-5-3.3-18.2,8.2-29.5,25.6C27.7,60.3,22.6,77.1,27.7,80.3l4.5,2.9
	c5,3.3,18.2-8.2,29.5-25.6C72.9,40.3,77.9,23.6,72.9,20.3z"/>
<path d="M68.1,12.7l-4.5-2.9c-5-3.3-19.2,9.6-31.5,28.7C19.6,57.7,13.7,75.8,18.7,79.1l4.5,2.9c5,3.3,19.2-9.6,31.5-28.7
	C67.2,34.1,73.1,16,68.1,12.7z"/>
<path class="st1" d="M61.7,57.7C50.4,75.1,37.2,86.5,32.2,83.3l-0.6-0.4c7.4-3.2,18.3-14.4,28-29.3c7.7-11.9,12.8-23.4,14.6-31.7
	C76.8,27.2,71.7,42.2,61.7,57.7z"/>
</svg>
