<?xml version="1.0" encoding="utf-8"?>
<!-- Generator: Adobe Illustrator 22.1.0, SVG Export Plug-In . SVG Version: 6.00 Build 0)  -->
<svg version="1.1" id="publicdomainvectors.org" xmlns="http://www.w3.org/2000/svg" xmlns:xlink="http://www.w3.org/1999/xlink"
	 x="0px" y="0px" viewBox="0 0 600 600" style="enable-background:new 0 0 600 600;" xml:space="preserve">
<style type="text/css">
	.st0{fill-rule:evenodd;clip-rule:evenodd;fill:#DB7E21;}
	.st1{fill-rule:evenodd;clip-rule:evenodd;fill:#FFBE69;}
	.st2{fill-rule:evenodd;clip-rule:evenodd;fill:#63330C;}
	.st3{fill-rule:evenodd;clip-rule:evenodd;fill:#984B2F;}
	.st4{fill-rule:evenodd;clip-rule:evenodd;fill:#8A3D21;}
	.st5{fill-rule:evenodd;clip-rule:evenodd;fill:#AB593C;}
	.st6{fill-rule:evenodd;clip-rule:evenodd;fill:#C9795C;}
</style>
<path class="st0" d="M55.1,305.2c20.4,72,94.8,89.7,177.5,84.8c86.4,88.2,137.6,55.5,215.1,31.6c56.2-17.3,104.6-29.3,99.3-90.5
	C387.4,318.8,214.6,317.5,55.1,305.2z"/>
<path class="st1" d="M183.4,369.1c-24.2-0.3-45.8-3-64.5-8.6c-19-5.7-34.9-14.4-47.1-26.7c-12.6-12.6-18.9-29-19.1-45.6
	c-0.2-16.5,5.9-33.1,18.2-45.9c9.8-10.2,22.3-18.5,37.4-25.1c14.9-6.5,32.3-11.2,52.1-14.3c4.1-0.6,8-1.3,11.7-2.1
	c3.7-0.7,7.4-1.6,11.6-2.6c32-7.9,61.4-9.8,87.1-3.3c26,6.5,48.1,21.4,65.4,46.9c3.9,5.7,8.9,10,14.6,12.8c5.7,2.8,12.2,4,19.1,3.4
	c52.6-4.1,99.9-4,132.2,8.2c33.7,12.7,51.3,37.8,42.6,83.3l-0.7,3.7l-3.7-0.2c-29.9-1.6-60.5,4.6-91.6,15.2
	c-31.3,10.7-63,25.8-94.8,42c-18.4,9.3-38,13-57.1,11.2c-19.1-1.8-37.7-9.1-54.1-21.7c-2.3-1.8-4.6-3.6-6.8-5.6c-2.2-2-4.4-4-6.5-6
	c-6.4-6.3-13.5-11-21.1-14.2C200.7,370.9,192.4,369.2,183.4,369.1z"/>
<path class="st2" d="M121.4,352.3c17.9,5.4,38.8,8,62.1,8.3c10.1,0.1,19.5,2,28.2,5.6c8.7,3.6,16.6,8.9,23.9,16c2,2,4.1,3.9,6.1,5.7
	c2.1,1.8,4.2,3.6,6.4,5.2c15,11.6,32.1,18.3,49.6,19.9c17.5,1.6,35.5-1.8,52.5-10.4c32.1-16.3,64.1-31.6,95.9-42.5
	c30.7-10.5,61.1-16.8,91-15.8c6.1-38.1-9.2-59.2-37.8-70c-30.9-11.6-76.9-11.7-128.5-7.7c-8.4,0.7-16.4-0.8-23.5-4.3
	c-7.1-3.4-13.2-8.7-18-15.7c-16-23.6-36.4-37.4-60.4-43.4c-24.2-6.1-52.2-4.3-82.9,3.3c-4.1,1-8,1.9-12,2.7
	c-3.9,0.8-7.9,1.5-12.1,2.2c-19,3-35.7,7.5-50,13.7c-14,6.1-25.6,13.8-34.6,23.1c-10.7,11.1-15.9,25.5-15.8,39.9
	c0.1,14.3,5.7,28.6,16.6,39.5C89.1,339,103.8,347,121.4,352.3z"/>
<g>
	<path class="st3" d="M74.8,286.5c-9.2-47.9,42.1-79,101.8-80.1c10.2-0.2,19-1.1,29-3.1c56.8-11.2,98.8-0.1,105.6,64.3
		c-15.4,48.8-54,64.2-98.7,70.7C102.7,363.7,77.2,332.8,74.8,286.5z"/>
	<path class="st4" d="M287.7,214.1c12.6,10.7,20.9,27.9,23.6,53.6c-15.4,48.8-54,64.2-98.7,70.7c-86.7,20-120.8,5-132.5-24.9
		c30.4,34.8,81.9,25.2,129-2.5C284.6,303.4,295,263.8,287.7,214.1z"/>
	<path class="st5" d="M82.3,281.3c1.8-45.5,47.5-63.4,95.8-65.3c34.2-8,67.9-15.2,87.3-0.3c14.2,59.6-24.5,69.1-69.1,73.2
		C119.4,336,89.3,328.5,82.3,281.3z"/>
	<path class="st6" d="M154.9,229.9c5.9,7.4-2.9,24.4-19.6,37.9c-16.7,13.5-35.1,18.4-41,11c-5.9-7.4,2.9-24.4,19.6-37.9
		C130.6,227.4,149,222.5,154.9,229.9z"/>
</g>
<g>
	<path class="st3" d="M268.5,350.5c-10.1-52.1,45.8-85.9,110.7-87.1l6.2,1.5l1.2,0.7c-3,0.2-6,0.4-9,0.6l1.5-2.8
		c11.1-0.2,20.6-1.2,31.6-3.4c61.7-12.2,107.4-0.1,114.8,70c-1.7,5.2-3.5,10.1-5.7,14.6c-24.4,1.4-49.1,7.1-74,15.6
		c-31.7,10.8-63.8,26.1-95.9,42.5c-11.8,6-24.1,9.5-36.4,10.5C280.5,404.3,270.1,380.3,268.5,350.5z"/>
	<path class="st4" d="M500,271.7c13.7,11.6,22.7,30.3,25.6,58.2c-1.7,5.2-3.5,10.1-5.7,14.6c-11.6,0.6-23.3,2.3-35,4.7
		C502.8,330.1,504.5,302.7,500,271.7L500,271.7z M313.6,413.1c-21.4-5.7-33.3-17.6-39.5-33.4c19.6,22.4,47.2,27.9,77.1,22.4
		l-1.2,0.6C338.3,408.6,326,412.1,313.6,413.1z"/>
	<path class="st5" d="M276.7,344.8c1.9-49.5,51.6-68.9,104.1-71c37.2-8.7,73.8-16.5,95-0.3c15.5,64.8-26.7,75.2-75.1,79.6
		C317,404.2,284.3,396.1,276.7,344.8z"/>
	<path class="st6" d="M355.6,288.9c6.4,8.1-3.2,26.5-21.4,41.2c-18.2,14.7-38.1,20.1-44.5,12c-6.4-8.1,3.2-26.5,21.3-41.2
		C329.3,286.2,349.2,280.9,355.6,288.9z"/>
</g>
</svg>
