<?xml version="1.0" encoding="utf-8"?>

<!DOCTYPE svg PUBLIC "-//W3C//DTD SVG 1.1//EN" "http://www.w3.org/Graphics/SVG/1.1/DTD/svg11.dtd">
<svg version="1.1" id="Layer_1" xmlns="http://www.w3.org/2000/svg" xmlns:xlink="http://www.w3.org/1999/xlink" x="0px" y="0px"
	 viewBox="-308.043 -416.0075 795.1136 1075.1212" enable-background="new -308.043 -416.0075 795.1136 1075.1212"
	 xml:space="preserve">
<g>
	<path fill="#234910" stroke="#234910" stroke-width="0.3944" d="M156.2064-354.7458c-0.7572-8.7076,4.7534-16.2374,8.7917-23.4727
		c2.0192,22.4631-3.6177,45.8096,4.0804,67.5576c8.6235,24.903,12.7039,51.6568,10.0958,77.9479
		c-1.6406,21.1591-2.1874,42.4023-4.7114,63.4773c-7.8242,17.878-12.0308,37.8171-25.1132,52.9608
		c-7.025-3.0708-14.7651-3.5335-22.2949-3.828c5.132-34.2415,14.723-67.5576,24.2299-100.7475
		c6.5622-23.7251,6.8146-48.5439,5.8051-72.9421C156.1223-314.1103,159.5296-334.5122,156.2064-354.7458z"/>
	<path fill="#499224" stroke="#499224" stroke-width="0.3944" d="M110.0603-276.5035c9.9275-28.3944,19.855-60.5747,46.1462-78.2424
		c3.3232,20.2336-0.0841,40.6356,0.8834,60.9533c1.0096,24.3982,0.7572,49.217-5.8051,72.9421
		c-9.5069,33.1899-19.0979,66.506-24.2299,100.7475c-7.4036-0.0841-14.8492,0-22.2528,0.2524
		c-5.8051-24.9029-14.2182-49.0487-21.4115-73.573c-1.9351-7.7401-6.0154-14.7651-12.9563-18.9717l6.8146,2.3557
		c-1.8088-26.4173,0.4627-54.7276,16.1954-77.0225c7.025-9.2965,7.4877-21.075,8.4552-32.2224
		C110.5651-306.875,108.2514-290.8058,110.0603-276.5035z"/>
	<path fill="#254813" stroke="#254813" stroke-width="0.3944" d="M249.0877-305.1082c0.8834,0.0841,2.6081,0.1682,3.4914,0.2103
		c-4.2907,17.4152-6.0995,35.5876-2.0612,53.2132c3.8701,16.7422,0.2103,33.7368-4.1645,49.9741
		c27.3848-12.9983,62.005,2.3136,85.9825-19.0558c18.7193-13.419,32.0121-33.3161,37.6909-55.653
		c-0.3365,22.9259-5.2582,46.5248-18.5089,65.6226c-7.5298,11.0212-19.4765,17.6255-29.6985,25.7442
		c-13.9659,10.3482-23.4727,25.1974-33.9891,38.7426l-4.6693-0.5469c-20.6543-2.8184-42.0237-3.3653-62.2574,2.4398
		c-22.2107,5.5106-39.8363,21.2012-60.743,29.8667c-2.1033-21.0329,10.4323-39.2894,17.2049-58.3032
		c21.3273-28.5627,50.1004-54.6434,56.4943-91.3248c2.0192-6.6464,4.5431-13.0825,6.8567-19.6027
		C243.3246-290.9741,246.101-298.0833,249.0877-305.1082z"/>
	<path fill="#224A11" stroke="#224A11" stroke-width="0.3944" d="M11.8367-260.182c-1.0516-13.1245,5.0479-25.618,14.8913-34.0312
		c-4.1645,19.2241-9.8434,42.3182,5.09,58.5556c8.2028,14.092,25.0291,16.9104,38.6164,23.2624
		c6.9409,4.2066,11.0212,11.2316,12.9563,18.9717c7.1932,24.5244,15.6064,48.6701,21.4115,73.573
		c-10.2641,0.5048-20.486,1.5564-30.666,2.7343c-9.2124-18.6351-4.501-40.3831-11.8205-59.481
		c-6.7726-15.3961-17.0787-29.5302-31.1708-39.037C23.8675-230.1049,10.4485-242.7247,11.8367-260.182z"/>
	<path fill="#244812" stroke="#244812" stroke-width="0.3944" d="M-136.3611-230.147
		c-11.7363-17.4994-10.4744-38.7005-14.8913-58.3873c5.9733,8.2449,13.8396,14.6809,23.3044,18.4669
		c-2.3557,0.0421-7.1091,0.1262-9.5069,0.1683c9.8434,18.3828,23.1783,34.4519,35.5035,51.1099
		c13.2928,17.4994,26.5856,35.3353,43.5802,49.5114c25.2815,20.5281,54.0545,37.9854,73.2365,64.9496
		c-21.4115-0.4207-41.8555-9.9696-63.4352-6.5202l-3.3232-0.4207c-6.394-6.8146-13.9238-12.3673-22.0845-16.8684
		c-17.1628-9.4648-31.5914-23.1362-42.0658-39.668c-15.2278-21.8742-22.9258-48.4177-40.8879-68.3569
		C-151.7992-234.648-141.4931-231.6614-136.3611-230.147z"/>
	<path fill="#AECC9E" stroke="#AECC9E" stroke-width="0.3944" d="M221.9973-260.0558c1.5144-10.8109,9.5489-18.6772,18.7193-23.7251
		c-2.3136,6.5202-4.8375,12.9563-6.8567,19.6027C230.9153-263.1266,224.9419-261.0653,221.9973-260.0558z"/>
	<path fill="#4A9126" stroke="#4A9126" stroke-width="0.3944" d="M-137.4548-269.8992c2.3978-0.0421,7.1512-0.1262,9.5069-0.1683
		c36.9758,6.5623,68.9037,31.8859,91.8296,60.9113c24.3561,35.798,34.1995,80.0932,64.571,111.9791
		c-1.8929-0.0421-5.6789-0.1262-7.6139-0.1683c-2.0612-2.2716-4.0383-4.5852-5.9733-6.9829
		c-19.182-26.9642-47.955-44.4214-73.2365-64.9496c-16.9946-14.1762-30.2873-32.0121-43.5802-49.5114
		C-114.2765-235.4473-127.6114-251.5164-137.4548-269.8992z"/>
	<path fill="#214B0F" stroke="#214B0F" stroke-width="0.3944" d="M-37.5906-266.7442c0.8413-0.2103,2.4819-0.5468,3.2811-0.7572
		c1.2199,2.6501,3.5756,7.9925,4.7955,10.6426c0.5048,2.1874,1.5564,6.6043,2.1033,8.8338
		c6.0995,30.3715,21.4115,58.3032,40.93,82.1124c8.6655,9.7172,9.7172,23.3044,16.0271,34.2836
		c6.3519,9.4648,14.1341,17.8359,21.075,26.9221c-7.1512,3.197-14.3444,6.394-22.1687,7.5298
		c-30.3715-31.8859-40.2149-76.1811-64.571-111.9791C-32.7951-228.2961-32.0379-247.8988-37.5906-266.7442z"/>
	<path fill="#4B9028" stroke="#4B9028" stroke-width="0.3944" d="M179.1743-232.713c14.4706-8.8338,28.5627-18.1724,42.823-27.3428
		c2.9446-1.0096,8.918-3.0708,11.8625-4.1224c-6.394,36.6814-35.167,62.7621-56.4943,91.3248l-2.9026,3.6176
		C176.9869-190.3107,177.5338-211.5539,179.1743-232.713z"/>
	<path fill="#4A9224" stroke="#4A9224" stroke-width="0.3944" d="M-27.4107-248.025
		c12.1149,21.1591,32.8954,33.7368,53.0029,46.2303c1.893-4.6272,3.7018-9.2545,5.5527-13.8396
		c14.0921,9.5069,24.3982,23.641,31.1708,39.037c7.3194,19.0979,2.6081,40.8459,11.8205,59.481
		c0.5889,1.3461,1.8509,4.0383,2.4398,5.3844c-8.7497,1.8088-17.5835,3.7439-25.9546,7.025
		c-6.9409-9.0862-14.723-17.4573-21.075-26.9221c-6.3099-10.9792-7.3615-24.5664-16.0271-34.2836
		C-5.9992-189.7218-21.3112-217.6535-27.4107-248.025z"/>
	<path fill="#ECCF9B" stroke="#ECCF9B" stroke-width="0.3944" d="M149.3497-116.2749
		c13.0824-15.1437,17.289-35.0829,25.1132-52.9608l2.9026-3.6176c-6.7726,19.0137-19.3082,37.2703-17.2049,58.3032
		C156.3747-113.7931,152.6729-114.2558,149.3497-116.2749z"/>
	<path fill="#4C9028" stroke="#4C9028" stroke-width="0.3944" d="M-116.0433-167.8055
		c10.4744,16.5319,24.9029,30.2032,42.0658,39.668c-18.0462,1.7668-35.5035-5.4265-53.5077-3.87
		c-29.404,1.1358-56.9571,12.4094-85.7301,17.1208c-18.0042,3.5756-36.0504-4.9638-53.8442-0.1682
		c-5.9733-1.4303-8.5814-8.3711-12.8721-12.0729c15.3961,2.3557,31.2128,5.4685,46.7351,2.1453
		c31.0445-5.6368,53.2553-32.601,84.6784-37.1862c10.6427-2.8184,21.4956-1.304,31.8017,2.1033
		C-116.5481-162.0004-116.2116-165.8705-116.0433-167.8055z"/>
	<path fill="#883415" stroke="#883415" stroke-width="0.3944" d="M220.9036-144.4169c20.2337-5.8051,41.603-5.2582,62.2574-2.4398
		c9.2965,8.7076,22.6314,9.0862,33.7788,14.092c24.1037,9.8434,47.8288,21.9583,67.9362,38.7426
		c3.7859,3.9121,7.9084,7.4877,12.4515,10.5164c3.7018,2.9446,7.3195,6.0154,10.8109,9.2545
		c-1.3461,2.4398-3.9541,7.3194-5.3003,9.7593c-8.6235-15.6485-21.8322-28.773-37.6068-37.1441
		c-3.9962-2.2716-8.0345-1.9771-12.0729,0.8834c-5.5106-4.3328-10.9371-8.8338-16.3636-13.2928
		c-6.6464-5.7209-14.2603-10.1799-22.4631-13.2507c-1.2199,1.6826-3.6598,5.0058-4.8796,6.6885
		c-5.7209-3.828-11.4839-7.698-17.4152-11.2316c-18.551-11.3157-41.6031-8.329-62.2994-7.5718
		c-28.2261,1.8088-46.8192,31.0025-75.7605,29.1516c-28.6047-1.262-58.5135-3.5335-85.5197,8.1187
		c-21.075,6.5202-43.7063,19.5606-65.8329,9.7172c-7.2774-2.4819-14.4706-5.2161-21.8742-7.2774
		c13.2928,1.6406,26.7118,2.1874,40.0887,2.3557c1.935,0.042,5.7209,0.1262,7.6139,0.1683
		c7.8242-1.1358,15.0175-4.3328,22.1687-7.5298c8.3711-3.2811,17.2049-5.2162,25.9546-7.025
		c-0.5889-1.3461-1.8509-4.0383-2.4398-5.3844c10.1799-1.1778,20.4019-2.2295,30.666-2.7343
		c7.4036-0.2524,14.8492-0.3365,22.2528-0.2524c7.5298,0.2945,15.2699,0.7572,22.2949,3.828
		c3.3232,2.0191,7.025,2.4819,10.8109,1.7247C181.0673-123.2158,198.6929-138.9063,220.9036-144.4169z"/>
	<path fill="#306316" stroke="#306316" stroke-width="0.3944" d="M-213.2153-114.8868c28.773-4.7113,56.3261-15.985,85.7301-17.1208
		c18.0042-1.5564,35.4615,5.6368,53.5077,3.87c8.1608,4.501,15.6905,10.0537,22.0845,16.8684
		c-43.2016-3.828-85.1411,10.0117-127.4593,16.2795c-12.1991,2.6081-23.9775-1.6826-35.1249-6.2258
		c-17.0366-7.025-37.2282-2.1033-52.5822-13.8396C-249.2656-119.8505-231.2194-111.3112-213.2153-114.8868z"/>
	<path fill="#FFBD83" stroke="#FFBD83" stroke-width="0.3944" d="M305.2455-114.8026
		c-10.4323,2.2716-21.1591-6.8988-13.2086-17.0366c5.9313,3.5335,11.6943,7.4036,17.4152,11.2316
		C308.4004-119.1354,306.2971-116.2329,305.2455-114.8026z"/>
	<path fill="#FFC584" stroke="#FFC584" stroke-width="0.3944" d="M264.6099-120.145c11.6943-3.9121,19.7289,9.3386,22.0845,18.8876
		C278.2813-88.8481,254.6824-109.7127,264.6099-120.145z"/>
	<path fill="#FFFFEA" stroke="#FFFFEA" stroke-width="0.3944" d="M-179.3523-94.9897
		c42.3182-6.2678,84.2578-20.1074,127.4593-16.2795l3.3232,0.4207c-17.92,2.9446-36.6393-1.6406-54.0545,4.501
		c-13.7555,4.2486-27.3007,9.3386-40.0046,16.1953c-2.7343,1.4302-5.3844,2.9867-8.0346,4.5852
		c-8.1608-1.7247-18.4248-7.1932-25.3657,0.3786c-6.6043,5.0479-2.8184,13.2507-2.3557,19.9812l-2.3557,1.9771
		c-4.9217,4.9638-9.4648,10.222-13.8817,15.6064c-2.1454-10.8109,11.1054-16.3636,9.6751-26.9221
		C-185.1994-81.8231-182.6334-88.6377-179.3523-94.9897z"/>
	<path fill="#61230C" stroke="#61230C" stroke-width="0.3944" d="M-48.5698-110.8484c21.5797-3.4494,42.0237,6.0995,63.4352,6.5202
		c1.935,2.3977,3.9121,4.7114,5.9733,6.9829C7.4618-97.5136-5.9572-98.0605-19.2499-99.701
		c-22.5893-1.7668-46.1882-9.4227-68.2728-0.9254c-8.2869,2.7343-15.3119,7.9084-21.8742,13.5031
		c-1.0096-2.7764-2.9867-8.2449-3.9963-10.9792c-8.96,5.0479-18.5931,10.0116-29.2357,7.9504
		c12.7039-6.8567,26.2491-11.9467,40.0046-16.1953C-85.2091-112.489-66.4898-107.9038-48.5698-110.8484z"/>
	<path fill="#FFC380" stroke="#FFC380" stroke-width="0.3944" d="M336.7948-114.0454c5.4265,4.459,10.853,8.96,16.3636,13.2928
		c0.4207,3.3653,1.2199,10.1379,1.5985,13.5452C340.2021-85.6931,323.502-100.7947,336.7948-114.0454z"/>
	<path fill="#9E070A" stroke="#9E070A" stroke-width="1.6589" d="M-87.5227-100.6265c22.0845-8.4973,45.6834-0.8413,68.2728,0.9254
		c7.4036,2.0612,14.5968,4.7955,21.8742,7.2774c-6.5623,0.5468-13.5031,0.2103-19.6447,2.9446
		c-20.4019,14.8072-35.3773,34.8725-48.0812,56.284c-21.2012,19.8971-29.2778,48.2074-39.1632,74.5826
		c-9.2545,18.7193-14.723,39.3736-14.8913,60.3223c-0.0421,15.3119,6.2257,30.3715,2.9867,45.6834
		c-5.0479,27.4269-7.1091,58.7238,10.4323,82.3648c2.4398,4.2487,4.9638,8.4131,7.4877,12.6618
		c-2.2716,3.6597-8.2028,7.1091-5.9313,12.1149c4.9638,13.8397,10.4323,27.5952,12.9983,42.192
		c3.5756,2.3136,7.1512,4.6693,10.7688,6.9409c2.4819,6.3098,4.8376,12.7038,6.6464,19.2661
		c8.4552,35.6718,36.471,62.5518,48.6701,96.6671c4.1645-0.9254,8.3711-1.8509,12.5356-2.8184
		c0.7993,5.3003,1.5985,10.6005,2.7343,15.8167c3.1549,2.4819,6.3519,4.9217,9.591,7.3195
		c-0.2945,3.4915-0.5889,6.9829-0.8834,10.4743c11.484,7.9084,16.658,20.6964,21.4956,33.1899
		c4.8796,14.0079,21.5377,17.7939,28.4785,30.2453c4.2486,7.1091,7.4036,14.7651,10.8109,22.2949
		c4.9638,0.2945,9.8855,0.5469,14.8493,1.0096c-1.9771,7.9925-7.9504,19.8129,0.7992,25.7863
		c8.4552,4.8376,10.6006-8.6656,14.723-12.9142c1.3882,5.7209,2.524,11.4839,3.7018,17.2049
		c4.2486-0.1683,8.4973-0.3365,12.7459-0.5048c6.5202,14.0499,17.6676,26.88,33.8209,29.2777
		c7.2774,2.0192,11.0212-6.3939,15.985-9.9695c0.0842,4.4169,0.1683,8.7917,0.2945,13.2086
		c2.6502,0.6731,7.9925,2.0192,10.6427,2.6923c2.4819,0.5889,7.4035,1.8088,9.8855,2.3978
		c-9.8434,2.0191-19.6027,4.3748-29.4881,6.0995c-1.5564-0.2524-4.7114-0.7572-6.2678-1.0516
		c-9.7172,4.0804-20.2757,4.9637-30.708,5.0059l-5.8471,0.1262c6.5622-6.9409,9.9275-15.9429,7.656-25.4077
		c-14.5548-0.2103-13.2507,14.4706-10.6847,24.5664c-16.4898-3.2812-33.1478-6.3519-48.7122-12.788
		c-12.1991-7.2353-22.7996-17.5834-37.3123-20.1074c-16.4898-11.1053-31.3811-25.1553-43.8746-40.5934
		c-5.5527-11.9467-13.8817-22.0425-25.0712-29.1095c-19.5606-21.2433-32.7272-47.7027-51.9933-68.9459l1.935-2.6922
		c1.1358-1.5564,3.3232-4.5851,4.459-6.0995c3.2811-0.2104,9.8013-0.5468,13.0825-0.7151
		c-2.1033-8.1608-5.8471-15.6905-11.3157-22.1266c-2.6501,1.5144-7.9504,4.501-10.6006,6.0154
		c-2.7763-0.0421-8.3711-0.0841-11.1895-0.1262c-6.1837-13.5452-13.8817-26.3332-22.9259-38.1536
		c-7.1091-9.0862-10.264-20.7805-18.7613-28.8571l1.7247-2.4398c1.4723-2.0612,4.4169-6.1416,5.8472-8.2028
		c7.8663-7.0671,9.0441-20.5702-1.0096-26.2491c-2.3978,0.9254-7.1933,2.7764-9.591,3.7018
		c-5.0479-1.2199-10.0117-2.7764-14.9334-4.459c-4.3328-5.4685-7.9925-11.6943-9.4648-18.551
		c-0.0841-12.788-6.4361-23.5569-14.3865-32.9796c-11.6102-25.3657-18.551-52.9608-23.9775-80.2615
		c-0.9675-10.1379-2.0192-20.2337-4.0383-30.2453c0.8413-10.3903,1.3461-20.8647,0.5889-31.2549
		c-1.9771-24.0196,3.0287-47.955-0.0421-71.9325c0.9254-11.8625,3.0708-23.8513,7.5298-34.9567
		c3.4073-7.9925,6.7305-16.0271,9.5489-24.2719c5.2582-2.9025,10.5585-5.8051,16.0691-8.329
		c2.6922,0.0421,8.0346,0.0421,10.7268,0.0841c5.5106-4.9637,10.1379-11.1474,10.4744-18.8455
		c-0.7993-1.935-2.4398-5.763-3.2391-7.656c-1.1358-5.1741-1.5144-10.4744-2.0612-15.7326l2.3557-1.9771
		c9.2124-6.8147,18.4248-13.6293,27.7213-20.3599c2.6501-1.5985,5.3003-3.1549,8.0346-4.5852
		c10.6426,2.0612,20.2757-2.9025,29.2357-7.9504c1.0096,2.7343,2.9867,8.2028,3.9963,10.9792
		c0.2945,2.8184,0.9254,8.4132,1.2199,11.2316C-94.9263-76.2704-82.3065-86.1979-87.5227-100.6265 M-82.0541-24.866
		c9.591-6.6884,13.0404-17.7518,12.9983-28.9833C-85.8401-58.2662-93.7484-34.7515-82.0541-24.866 M-154.4914-3.6649
		c3.7439-7.4877,8.4552-14.9333,8.2028-23.5989C-160.7171-40.4303-172.9583-3.749-154.4914-3.6649 M-121.638,40.5884
		c2.2715,0.2945,6.7305,0.8413,8.96,1.0937c2.9446-8.4132,3.6177-17.289,3.1549-26.1228
		C-125.2557,11.0161-126.5597,30.114-121.638,40.5884 M-212.1636,53.7549c9.9275-5.5106,14.5548-17.0787,13.1245-28.0579
		C-213.8883,22.6263-224.4047,44.8791-212.1636,53.7549 M-168.1628,59.4338c-1.6406,8.3711,4.8376,13.7134,11.6102,16.9525
		c5.2162-9.0021,7.4036-19.8971,4.1224-30.035C-160.4648,39.3685-170.1819,51.1048-168.1628,59.4338 M-202.6147,130.3567
		c2.6081-0.0421,7.8242-0.0421,10.3902-0.0841c1.3461-8.5814,7.3195-22.5893-2.7763-27.5952
		C-207.2419,105.7482-206.2744,120.8498-202.6147,130.3567 M-134.6364,124.6358c-0.7572,10.3902-5.2162,28.0579,10.6006,28.2682
		c3.9963-9.4648,6.8988-19.5185,3.197-29.6143C-125.424,123.7524-130.0512,124.173-134.6364,124.6358 M-167.1532,154.5866
		c-2.3136,10.2219-6.2678,27.7213,9.4648,27.4269c3.5335-8.96,3.828-18.551,2.7343-28.0158
		C-159.0345,154.208-163.0728,154.3763-167.1532,154.5866 M-206.6951,203.9719c-6.6043,6.9408-5.7209,23.5148,3.9121,27.3428
		c9.8434-0.4207,6.7305-13.6714,6.8988-20.3178C-195.0849,204.3083-201.1844,201.7003-206.6951,203.9719 M-168.1628,268.4586
		c2.0612-0.4206,6.1837-1.2619,8.2449-1.6826c1.893-10.1799,4.2486-22.5893-5.5947-29.6564
		C-175.9029,244.6915-174.2203,258.6994-168.1628,268.4586 M-130.2615,246.0376c-7.1512,10.0116-4.4169,21.9162,2.2716,31.339
		c12.7459-4.7955,9.1283-18.551,9.1283-29.1095C-122.6897,247.5099-126.4756,246.7948-130.2615,246.0376 M-118.1886,322.1346
		c-8.4973,5.1741-1.8088,28.4365,9.5069,21.4535C-107.0412,336.1846-105.3165,315.7827-118.1886,322.1346 M-78.1841,361.424
		c-0.3365,5.2582-0.631,10.4744-0.9255,15.7326c2.3978,3.2811,4.8376,6.5623,7.2774,9.8434
		c2.3557-0.3786,7.067-1.1778,9.4227-1.5564c0.2524-8.3291-0.1262-16.616-1.1778-24.8188
		C-68.4669,360.8772-73.3465,361.1295-78.1841,361.424 M-106.4944,396.5069c6.8567-7.4877,8.329-27.3848-5.0058-27.469
		C-123.6993,374.7589-117.0529,392.5527-106.4944,396.5069 M-55.1741,422.8401c-7.6139,7.6559-6.0995,26.2911,7.2774,25.5759
		c5.8892-6.5201,1.6406-15.8167,0.9675-23.4306C-48.9905,424.4386-53.1129,423.3449-55.1741,422.8401 M-4.1063,461.5826
		c-8.7918,5.0479-4.5431,19.5185,2.7343,24.7347C10.743,485.6863,8.7659,457.4602-4.1063,461.5826 M-69.0979,462.1716
		c-6.6043,10.2641,4.6693,24.314,15.9429,21.748C-48.6539,474.4548-56.8988,455.9459-69.0979,462.1716 M-31.6593,499.526
		c-0.4207,4.1224-0.8413,8.2449-1.262,12.3673c4.459,6.0154,10.3902,10.1378,18.0462,10.7688
		C-13.0242,511.4727-18.1983,497.2965-31.6593,499.526 M30.9345,512.3561c-2.9446,9.591-1.1778,19.4344,6.4361,26.3331
		c2.2716-0.673,6.7726-2.0191,9.0441-2.6922C47.3402,525.6488,44.9004,509.3273,30.9345,512.3561 M8.5135,544.6205
		c-2.1033,9.8434,4.459,24.1878,16.1112,21.4535C31.1869,556.8617,20.8808,539.6147,8.5135,544.6205 M52.5984,585.3401
		c0.3365,7.7402,8.2028,8.0346,13.9658,9.4228c1.0937-8.4131-1.0516-16.4898-5.8051-23.4307
		C57.1415,574.9499,48.7283,578.8621,52.5984,585.3401z"/>
	<path fill="#EBA56F" stroke="#EBA56F" stroke-width="0.3944" d="M-109.3969-87.1233c6.5622-5.5948,13.5872-10.7689,21.8742-13.5031
		c5.2162,14.4285-7.4036,24.3561-20.6543,24.7347C-108.4715-78.7102-109.1024-84.3049-109.3969-87.1233z"/>
	<path fill="#F3B8B8" stroke="#F3B8B8" stroke-width="0.3944" d="M384.876-94.0221c6.1416-6.0996,18.509,3.4914,12.4515,10.5164
		C392.7844-86.5344,388.6619-90.11,384.876-94.0221z"/>
	<path fill="#F1CC89" stroke="#F1CC89" stroke-width="0.3944" d="M-176.0291-85.1883c6.9408-7.5719,17.2049-2.1033,25.3657-0.3786
		c-9.2965,6.7305-18.5089,13.5452-27.7213,20.3599C-178.8475-71.9376-182.6334-80.1404-176.0291-85.1883z"/>
	<path fill="#FFC189" stroke="#FFC189" stroke-width="0.3944" d="M88.3543-77.953c3.3652-2.6502,7.9083-2.0612,11.8205-2.8605
		c1.1778,8.8338,1.262,17.7938-1.262,26.3752c-2.6922-0.5048-8.0766-1.4723-10.7688-1.9771
		C87.7654-63.5665,86.3772-70.928,88.3543-77.953z"/>
	<path fill="#FFC382" stroke="#FFC382" stroke-width="0.3944" d="M197.6833-61.5474
		c-16.1533,14.1341-25.0712-28.3523-3.2391-21.0329C195.9165-75.6815,198.0619-68.7406,197.6833-61.5474z"/>
	<path fill="#FFC88E" stroke="#FFC88E" stroke-width="0.3944" d="M408.1383-74.2512c8.7918,8.7497,19.0979,17.7097,19.6027,31.1707
		c-12.199-1.4723-24.1037-7.9084-24.9029-21.4115C404.1842-66.9318,406.7923-71.8114,408.1383-74.2512z"/>
	<path fill="#FFC387" stroke="#FFC387" stroke-width="0.3944" d="M322.9551-70.3391c4.5852,1.0937,13.419-1.9771,14.3445,4.8796
		c1.5985,6.5623,0.631,13.3349,0.5889,19.9812C323.8386-44.7211,322.3662-59.7806,322.9551-70.3391z"/>
	<path fill="#FFC484" stroke="#FFC484" stroke-width="0.3944" d="M369.3958-62.0942c0.0842-5.9733,7.3195-8.4552,11.2736-4.2066
		c7.1512,4.6693,8.0767,13.461,8.6656,21.2432C379.786-44.8893,368.9331-51.6199,369.3958-62.0942z"/>
	<path fill="#FFC085" stroke="#FFC085" stroke-width="0.3944" d="M147.4567-63.6507c12.0729-2.1453,9.7172,15.6485,7.3615,22.9679
		C141.3993-28.2313,134.5005-59.7385,147.4567-63.6507z"/>
	<path fill="#8A3426" stroke="#8A3426" stroke-width="0.3944" d="M-194.6222-47.6236c4.4169-5.3844,8.96-10.6426,13.8817-15.6064
		c0.5468,5.2582,0.9254,10.5585,2.0612,15.7326c-11.5681,4.1645-16.0691,15.1437-17.9621,26.4173
		c-5.5106,2.5239-10.8109,5.4265-16.0691,8.329c1.8509-5.2162,3.7859-10.3482,6.0154-15.4382
		C-203.2036-34.9618-199.1232-41.4399-194.6222-47.6236z"/>
	<path fill="#FFBF80" stroke="#FFBF80" stroke-width="0.3944" d="M246.774-54.1859c14.8913-6.7726,15.8167,13.5452,13.8817,23.4727
		C246.5217-27.8106,246.3955-44.5528,246.774-54.1859z"/>
	<path fill="#DDA06E" stroke="#DDA06E" stroke-width="0.3944" d="M-82.0541-24.866c-11.6943-9.8855-3.7859-33.4002,12.9983-28.9833
		C-69.0138-42.6178-72.4632-31.5545-82.0541-24.866z"/>
	<path fill="#E39B6F" stroke="#E39B6F" stroke-width="0.3944" d="M-196.6413-21.0801c1.893-11.2736,6.394-22.2528,17.9621-26.4173
		c0.7993,1.8929,2.4398,5.7209,3.2391,7.656c-0.3365,7.698-4.9638,13.8817-10.4744,18.8455
		C-188.6068-21.038-193.9491-21.038-196.6413-21.0801z"/>
	<path fill="#FFC282" stroke="#FFC282" stroke-width="0.3944" d="M-48.1491-4.0014c-14.8913-7.0671-4.1645-39.5418,10.9792-27.1745
		C-35.8659-20.6594-41.3345-11.447-48.1491-4.0014z"/>
	<path fill="#FFC57C" stroke="#FFC57C" stroke-width="0.3944" d="M88.9853-4.3379c-15.9429,4.6693-18.6351-21.2432-6.6464-26.6276
		C94.7483-29.0726,89.2377-12.9193,88.9853-4.3379z"/>
	<path fill="#EBCE94" stroke="#EBCE94" stroke-width="0.3944" d="M-222.533-15.4159c5.4209-6.5739,8.182-8.9453,15.838-12.7733
		c-2.2295,5.09-4.1645,10.222-6.0154,15.4382c-2.8184,8.2449-6.1416,16.2794-9.5489,24.2719
		c-5.0058-1.9771-4.8155-3.3171-6.289-8.3437C-230.389-3.1015-226.6719-10.3967-222.533-15.4159z"/>
	<path fill="#E6A16C" stroke="#E6A16C" stroke-width="0.3944" d="M-154.4914-3.6649c-18.4669-0.0841-6.2257-36.7655,8.2028-23.5989
		C-146.0362-18.5982-150.7476-11.1526-154.4914-3.6649z"/>
	<path fill="#FFBE7F" stroke="#FFBE7F" stroke-width="0.3944" d="M6.8308-7.8294c-4.6693-8.0346-1.3461-17.289,3.9121-24.0616
		c12.0308,2.7343,11.1895,14.9754,8.7497,24.3561C17.7259-2.2346,7.9246-2.2767,6.8308-7.8294z"/>
	<path fill="#FFBE89" stroke="#FFBE89" stroke-width="0.3944" d="M217.5383,12.7829c-2.3978-7.8242-6.8988-19.1399,3.6177-23.2203
		c9.8013,3.7439,6.5202,14.8072,7.6139,22.8838C225.9515,12.5305,220.3567,12.6987,217.5383,12.7829z"/>
	<path fill="#FFC894" stroke="#FFC894" stroke-width="0.3944" d="M445.1142-7.1984c6.8146,8.5393,8.5393,19.8971,6.6884,30.4977
		l-4.4169-1.8509c-2.1874-0.5889-6.4781-1.8088-8.6655-2.4398c-0.7572-5.9733-1.4723-11.9467-2.1874-17.92
		C439.3932-1.6878,442.2537-4.422,445.1142-7.1984z"/>
	<path fill="#FFC47F" stroke="#FFC47F" stroke-width="0.3944" d="M390.8914,1.8458c14.1341-6.0995,17.7938,15.9009,10.5585,23.4306
		C389.6294,27.9686,384.9601,9.4176,390.8914,1.8458z"/>
	<path fill="#ED6764" stroke="#ED6764" stroke-width="0.3944" d="M114.0986,24.3089
		c-3.7439-20.7384,26.7118-28.8151,37.6068-13.5873c4.9217,5.7209,3.2391,13.419,3.197,20.2757
		c-6.6043-2.8184-8.918-9.7172-12.0729-15.5223C131.6821,10.0486,122.3435,17.4942,114.0986,24.3089z"/>
	<path fill="#FFBB81" stroke="#FFBB81" stroke-width="0.3944" d="M319.5058,7.8191c2.9026-0.7993,8.7076-2.4398,11.6101-3.2391
		c3.2811,7.8242,10.4744,21.7901-0.1262,26.88C320.3471,28.9361,320.3892,16.5267,319.5058,7.8191z"/>
	<path fill="#E1A26C" stroke="#E1A26C" stroke-width="0.3944" d="M-121.638,40.5884c-4.9217-10.4744-3.6177-29.5723,12.1149-25.0292
		c0.4627,8.8338-0.2103,17.7097-3.1549,26.1228C-114.9075,41.4297-119.3665,40.8828-121.638,40.5884z"/>
	<path fill="#FFC07C" stroke="#FFC07C" stroke-width="0.3944" d="M128.8637,42.5234c-2.7764-8.96-6.2678-21.2432,3.7859-27.1745
		c12.7039,2.8605,9.2545,17.1208,6.9829,26.249C136.9403,41.8503,131.5559,42.313,128.8637,42.5234z"/>
	<path fill="#F97577" stroke="#F97577" stroke-width="0.3944" d="M169.9199,43.8274
		c-0.9675-13.1666,14.8071-21.6218,26.5856-21.3273c17.247-1.304,30.708,17.3732,25.0291,33.4844
		c-2.1033-1.4723-6.3099-4.3748-8.3711-5.8051c-3.828-5.763-5.2582-14.6389-13.1245-16.1953
		C188.9757,30.9973,179.4267,39.6208,169.9199,43.8274z"/>
	<path fill="#883415" stroke="#883415" stroke-width="0.3944" d="M447.3857,21.4484l4.4169,1.8509
		c3.1549,16.2374,3.0708,32.8954,5.7209,49.2169c-4.8376,10.9792-3.7018,22.9679-1.7668,34.4519
		c-0.2104,26.7118-0.7993,54.0545-7.7401,79.9249c0.2524-6.0154,0.5048-11.9887,0.7151-18.0041
		c2.9446-33.6105,0.9255-67.3894,1.5985-101.0841C450.751,52.3247,449.8255,36.7604,447.3857,21.4484z"/>
	<path fill="#DDA071" stroke="#DDA071" stroke-width="0.3944" d="M-212.1636,53.7549
		c-12.2411-8.8759-1.7247-31.1287,13.1245-28.0579C-197.6088,36.6762-202.2361,48.2443-212.1636,53.7549z"/>
	<path fill="#FFC17D" stroke="#FFC17D" stroke-width="0.3944" d="M291.8685,50.6c-12.8721,1.304-27.1324-20.2336-12.157-27.0483
		C291.3217,27.1694,292.6678,40.3359,291.8685,50.6z"/>
	<path fill="#FFC984" stroke="#FFC984" stroke-width="0.3944" d="M184.1802,63.7666c0.7151-8.3711-4.2907-22.1266,7.7401-23.5568
		c7.7401,2.6081,5.5527,11.7784,5.9313,18.0883c-0.9254,2.2716-2.7343,6.8146-3.6597,9.0862
		C190.8265,66.2064,187.5034,65.0286,184.1802,63.7666z"/>
	<path fill="#FFC17C" stroke="#FFC17C" stroke-width="0.3944" d="M420.4637,40.2939c14.1341-0.5469,12.7039,18.9296,8.1608,27.7634
		C417.3508,65.3651,410.1575,47.6133,420.4637,40.2939z"/>
	<path fill="#D8A365" stroke="#D8A365" stroke-width="0.3944" d="M-168.1628,59.4338c-2.0191-8.329,7.698-20.0654,15.7326-13.0825
		c3.2811,10.1379,1.0937,21.0329-4.1224,30.035C-163.3252,73.1473-169.8034,67.8049-168.1628,59.4338z"/>
	<path fill="#FFC085" stroke="#FFC085" stroke-width="0.3944" d="M-13.9497,64.7341c-15.7747,9.9696-17.8779-14.3444-9.3386-22.5473
		c2.566,0.673,7.7401,2.0612,10.3061,2.7343C-13.3187,51.5255-13.6973,58.1298-13.9497,64.7341z"/>
	<path fill="#90393B" stroke="#90393B" stroke-width="0.3944" d="M-234.7109,110.081c0.3365-21.2432-1.2199-42.9912,4.9217-63.6035
		c3.0708,23.9775-1.935,47.9129,0.0421,71.9325c0.7572,10.3902,0.2524,20.8646-0.5889,31.2549l-1.8509-5.4686
		C-235.5942,133.2172-234.0378,121.4388-234.7109,110.081z"/>
	<path fill="#F37673" stroke="#F37673" stroke-width="0.3944" d="M83.8533,57.1623c11.9046-2.5239,26.4594-1.8088,34.9567,8.0766
		c8.329,8.7918,8.7917,22.0425,5.1741,33.0637c-7.6139-4.0383-8.5393-13.0404-11.6522-20.1074
		c-4.3748-7.1932-12.4094-13.8817-21.3694-10.5585c-8.7076,1.7668-12.9142,10.1799-18.3407,16.2374
		c-1.5985,1.4723-4.7534,4.3328-6.3519,5.8051C64.2506,76.4284,70.855,61.9578,83.8533,57.1623z"/>
	<path fill="#FFC87F" stroke="#FFC87F" stroke-width="0.3944" d="M40.5255,92.5816C26.3073,87.071,24.9191,56.1527,44.3115,60.191
		C51.9254,69.1931,46.8354,83.7899,40.5255,92.5816z"/>
	<path fill="#E58285" stroke="#E58285" stroke-width="1.6589" d="M224.8157,86.398c10.6006-24.3982,49.5535-28.6468,65.875-7.656
		c10.0958,10.7688,14.8492,29.7825,2.9867,41.0983c-11.6943,10.6426-7.6981,28.0579,0.5469,39.5418
		c14.05,2.9026,24.8188-5.763,36.1765-12.2832l3.9962,1.8088c-0.0841,2.2295-0.2103,6.6885-0.2944,8.96
		c-8.8759,23.6409,15.8167,42.4865,12.7459,66.0012c0,17.4994-14.0921,29.6984-27.0904,39.1212
		c-13.2086,8.6234-17.7517,25.6601-16.1112,40.6355c2.3978,14.3445,24.1037,14.8492,31.4652,4.5431
		c5.1741-12.5356,4.3748-27.9737,15.4802-37.5227c2.1454,1.8929,6.4781,5.6789,8.6235,7.5718
		c-0.4207,9.0021,0.7571,18.4669-2.2716,27.1324c-6.394,9.7593-15.312,17.4994-22.9679,26.2491
		c-14.3445,6.3519-30.1191-8.918-43.0754-0.7572c-8.5814,14.6389-2.6501,33.232-5.2582,49.4273
		c-5.2161,8.918-11.4419,19.2241-22.4211,21.3694c-8.7917,0.7151-22.4631,4.0804-24.8609-7.5718
		c5.6368-0.0421,11.2736-0.0421,16.9525,0.0421c6.8146-7.6139,14.723-14.8913,18.4669-24.6085
		c4.5851-15.354-8.1187-31.8017-23.0521-34.3677c-19.3923-1.6826-16.7001,31.7176-36.3028,25.6602
		c-7.6139-7.656,2.4398-15.7326,4.3328-23.6831c2.1033-10.3061,0.3365-23.7671-10.222-28.773
		c-6.9829-4.7534-15.2699-0.1262-22.0004,2.7343c-8.5393,4.5431-18.8875,10.9792-19.182,21.8742
		c-1.2199,16.7422,15.2699,26.4173,20.486,41.0562c-21.117,4.1645-36.6393-13.0825-47.4502-28.6469
		c-2.1033-20.0233,15.9009-35.0829,15.0175-54.4331c-4.7113-21.5377-37.733-17.6255-45.5152-0.5048
		c-0.631,12.9142,6.2678,24.7767,9.2124,37.1441l1.2199,4.2907c-5.3003-0.5889-12.3253,1.3882-15.6064-4.2486
		c-10.853-12.2411-14.05-29.1096-12.4515-44.9683c5.5106-10.6848,14.1341-19.2661,20.0654-29.6564
		c-0.1683-6.2678-1.1358-12.4515-1.8509-18.6772c-0.2524-2.4398-0.7572-7.3195-1.0096-9.8013
		c6.4361,0.8413,12.8721,2.3136,19.3923,1.7668c15.7747-8.7497,23.5568-31.297,14.5548-47.2819
		c-8.6655-10.1379-26.6276-11.8626-36.0083-1.7668c-7.7401,7.4456-7.5718,19.0137-9.8855,28.815
		c-2.2295-0.5048-6.6884-1.5564-8.9179-2.0612c-5.8051-18.9296,6.0575-36.3449,22.5893-44.7159
		c17.92-3.786,33.5264,8.4132,50.9417,8.5814c21.5798-5.8471,22.1687-49.89-4.0804-48.9646
		c-11.2736-1.0937-14.8492,11.7364-20.5281,18.8455c-2.6922,8.7076-15.3961,5.5527-16.1953-2.4819
		c-9.1703-28.2682,23.0941-53.5077,49.4273-50.7313c13.419,2.7764,20.4019,16.0271,31.339,22.9679
		c7.4036,2.4398,16.1533-0.7572,22.7997,3.828c9.8855,9.4227,18.2986,25.9546,34.536,22.8838
		c21.117-1.5144,26.5435-32.0121,12.199-44.9263C259.6462,75.1664,240.0435,85.8511,224.8157,86.398 M197.6412,132.7124
		c-10.6426,9.5069-11.2736,27.3428-5.0058,39.3736c12.1991,13.3348,33.8209,0.7572,34.1153-15.6485
		C231.2938,140.2422,212.9111,121.4808,197.6412,132.7124 M243.8295,171.2446c-15.1016,6.352-13.5873,26.0808-12.8721,39.5419
		c0.7993,14.05,18.9717,25.7442,30.4977,14.9334c10.8109-14.9755,11.7364-36.9337,2.1033-52.6664
		C258.3,168.6366,250.0131,169.3938,243.8295,171.2446 M298.6411,179.2372c-13.3769,3.9542-15.1857,20.2757-15.4802,32.0541
		c0.7993,13.0825,14.1761,22.2528,26.5435,17.1208c10.222-11.5681,12.788-29.6984,4.8376-43.1595
		C311.3871,179.6999,304.5724,177.6808,298.6411,179.2372 M167.0594,261.2654l-0.2945-3.786
		c2.0191,0.7993,6.0575,2.3557,8.1187,3.1129c8.96,5.3003,17.0366-5.3424,20.0654-12.7459
		c7.5719-13.7976-3.2811-36.1345-20.1916-34.0312C152.7991,216.0447,148.0457,251.1696,167.0594,261.2654 M206.5171,269.6365
		c-1.8929,11.5681,2.1033,22.7576,9.1703,31.8438c7.9925,0.042,18.5931,3.2811,23.7251-5.09
		c6.5202-12.4514,4.8376-29.4039-4.459-40.0466C225.1943,245.3225,206.5592,256.7223,206.5171,269.6365 M264.7361,254.8294
		c-18.5931,9.7172-19.3503,51.4464,7.4036,49.6797c16.7001-3.4073,17.92-25.1133,14.6809-38.5323
		C285.0539,255.881,273.8644,251.0014,264.7361,254.8294z"/>
	<path fill="#EE5A5C" stroke="#EE5A5C" stroke-width="0.3944" d="M305.2455,79.9199c1.262-16.5739,25.0712-20.3178,35.5456-9.6331
		c8.1187,5.8051,7.9504,16.6581,7.2353,25.576c-3.6176-5.763-6.8146-11.8205-11.1053-17.0787
		c-7.2353-4.8375-16.3636-0.9675-24.272-0.2103C310.7981,78.9103,307.0964,79.5833,305.2455,79.9199z"/>
	<path fill="#FFBD83" stroke="#FFBD83" stroke-width="0.3944" d="M365.5678,64.692c16.9105-5.8892,17.2049,20.486,4.6693,24.9029
		C367.8394,81.4763,366.1567,73.1473,365.5678,64.692z"/>
	<path fill="#AB2C16" stroke="#AB2C16" stroke-width="0.3944" d="M72.6217,83.874c5.4265-6.0575,9.6331-14.4706,18.3407-16.2374
		c8.96-3.3232,16.9946,3.3652,21.3694,10.5585c-8.0346,3.4494-9.6331,12.2832-12.6618,19.4765
		c-0.0841-8.2028,3.2811-22.4211-8.7076-23.1783c-6.4361,4.2486-7.1091,12.1149-7.8242,19.0558
		C79.6467,90.3101,76.1132,87.1131,72.6217,83.874z"/>
	<path fill="#FFC47D" stroke="#FFC47D" stroke-width="0.3944" d="M-77.3428,107.2626c-12.5356-6.3099-9.7593-30.2032,6.1837-29.0675
		C-70.5281,87.8703-65.1858,102.7195-77.3428,107.2626z"/>
	<path fill="#FFC878" stroke="#FFC878" stroke-width="0.3944" d="M83.1382,93.5492c0.7151-6.9409,1.3882-14.8071,7.8242-19.0558
		c11.9887,0.7572,8.6235,14.9754,8.7076,23.1783c-1.3461,2.2295-4.1224,6.6043-5.4685,8.7917
		C88.3543,104.2339,83.3485,100.3638,83.1382,93.5492z"/>
	<path fill="#AD1F13" stroke="#AD1F13" stroke-width="0.3944" d="M312.649,78.5738c7.9084-0.7572,17.0367-4.6272,24.272,0.2103
		c4.2907,5.2582,7.4877,11.3157,11.1053,17.0787c-3.2391,3.4494-6.6884,6.7305-10.4744,9.5489
		c1.0096-9.3386-3.2811-16.2795-12.2832-19.0979C320.9781,83.874,316.7715,81.308,312.649,78.5738z"/>
	<path fill="#FFC084" stroke="#FFC084" stroke-width="0.3944" d="M325.2688,86.3138c9.0021,2.8184,13.2928,9.7593,12.2832,19.0979
		c-2.1874,3.828-3.9541,9.591-9.4648,7.1091C319.632,106.2951,323.5862,94.7691,325.2688,86.3138z"/>
	<path fill="#FFC282" stroke="#FFC282" stroke-width="0.3944" d="M243.8715,121.8594c-3.197-10.5164-3.7859-29.3198,12.0729-25.7022
		C257.6691,106.5895,260.3192,125.1826,243.8715,121.8594z"/>
	<path fill="#E0A169" stroke="#E0A169" stroke-width="0.3944" d="M-202.6147,130.3567c-3.6597-9.5069-4.6272-24.6085,7.6139-27.6793
		c10.0958,5.0058,4.1225,19.0137,2.7763,27.5952C-194.7904,130.3147-200.0066,130.3147-202.6147,130.3567z"/>
	<path fill="#FFC382" stroke="#FFC382" stroke-width="0.3944" d="M403.8056,102.8457c18.4669-4.4169,19.0137,25.8705,6.4781,31.339
		C400.7348,127.5383,404.0159,112.9836,403.8056,102.8457z"/>
	<path fill="#FDC79B" stroke="#FDC79B" stroke-width="0.3944" d="M455.7568,106.9682l3.4073-4.459
		c1.8929,32.1803-7.8663,63.7297-4.7534,95.91c1.7247,9.8434-5.0479,17.5414-10.264,24.945
		c-1.9351-12.4094-3.4915-25.3656,3.8701-36.471C454.9576,161.0227,455.5465,133.6799,455.7568,106.9682z"/>
	<path fill="#DAA26A" stroke="#DAA26A" stroke-width="0.3944" d="M-134.6364,124.6358c4.5852-0.4627,9.2124-0.8834,13.7976-1.3461
		c3.7018,10.0958,0.7992,20.1495-3.197,29.6143C-139.8525,152.6937-135.3936,135.026-134.6364,124.6358z"/>
	<path fill="#FFC486" stroke="#FFC486" stroke-width="0.3944" d="M0.8996,129.0947c3.828,0.1262,7.656,0.2103,11.4839,0.3365
		c1.0937,8.8338,0.7572,17.7938-1.8509,26.3752c-2.8184-0.1682-8.4132-0.5048-11.2316-0.673
		C-3.9801,146.4679-2.7602,137.4659,0.8996,129.0947z"/>
	<path fill="#F47679" stroke="#F47679" stroke-width="0.3944" d="M37.5809,188.6178
		c-16.2374-18.9716-6.0995-53.5918,19.3923-57.8825c9.6751-3.2812,23.4306,4.0804,15.6906,15.1857l-4.3748,0.2944
		c-9.9696,0.2103-21.7901,1.8089-26.0808,12.3674c-6.9409,11.6522,2.5239,23.7671,8.96,33.1479
		C46.5409,193.4554,40.2311,193.7919,37.5809,188.6178z"/>
	<path fill="#FFC17B" stroke="#FFC17B" stroke-width="0.3944" d="M157.8891,164.0094
		c-12.6197-7.2774-13.7555-26.4173,0.1683-32.7272C166.8491,140.6208,165.7133,154.4183,157.8891,164.0094z"/>
	<path fill="#FCAC7A" stroke="#FCAC7A" stroke-width="0.3944" d="M301.9222,131.5346c11.8626-0.7151,9.9696,19.6447,3.5756,25.4498
		C291.2376,159.6765,290.7328,135.1943,301.9222,131.5346z"/>
	<path fill="#FFC67E" stroke="#FFC67E" stroke-width="0.3944" d="M198.9032,144.7012c16.0691-2.9446,15.2699,20.3177,5.5527,27.1324
		c-6.7305-2.2295-7.4457-9.9696-10.3903-15.2698C195.2855,153.577,197.6833,147.6878,198.9032,144.7012z"/>
	<path fill="#EED298" stroke="#EED298" stroke-width="0.3944" d="M-239.6431,166.0811
		c-1.5985-11.2316-1.7563-16.3741,7.4561-21.8847l1.8509,5.4686c2.0191,10.0116,3.0708,20.1074,4.0383,30.2453
		C-233.6592,178.1855-234.8896,172.8116-239.6431,166.0811z"/>
	<path fill="#DFA269" stroke="#DFA269" stroke-width="0.3944" d="M-167.1532,154.5866c4.0804-0.2103,8.1187-0.3786,12.1991-0.5889
		c1.0937,9.4648,0.7993,19.0558-2.7343,28.0158C-173.421,182.308-169.4668,164.8086-167.1532,154.5866z"/>
	<path fill="#FFC17E" stroke="#FFC17E" stroke-width="0.3944" d="M-48.4436,163.7569c6.1837-5.0479,11.4419,3.4915,10.222,9.2966
		c1.7668,8.7076-2.8605,17.0787-11.1054,20.1916C-53.7018,184.4112-58.918,170.5295-48.4436,163.7569z"/>
	<path fill="#FFC482" stroke="#FFC482" stroke-width="0.3944" d="M58.5297,188.9964c-5.1741-10.5585-3.5335-31.2128,12.788-25.7863
		c0.4627,8.7917,0.0421,17.6256-3.1549,25.9546C65.765,189.1226,60.9274,189.0385,58.5297,188.9964z"/>
	<path fill="#FFC180" stroke="#FFC180" stroke-width="0.3944" d="M347.2692,194.0443
		c-13.8817-9.0862-5.9734-34.7043,11.8205-28.8151c-0.8834,6.7726-1.0938,13.6714-2.6922,20.3178
		C354.1259,187.6924,349.5407,191.8989,347.2692,194.0443z"/>
	<path fill="#FFC483" stroke="#FFC483" stroke-width="0.3944" d="M416.9301,171.1184c2.1033-0.0841,6.2678-0.2944,8.329-0.3786
		c6.3519,9.5069,6.3519,29.9929-8.2449,30.9184C415.7523,191.5204,414.8689,181.2143,416.9301,171.1184z"/>
	<path fill="#FFC17B" stroke="#FFC17B" stroke-width="0.3944" d="M382.4782,176.8815c4.6693-2.3978,9.5069-3.0287,14.5127-1.893
		c4.3328,8.2029,0.7151,17.4994-0.4207,26.0387c-2.3136,0.2945-6.9829,0.8834-9.2965,1.1778
		c-1.4723-7.6139-3.0708-15.1857-4.8375-22.7155L382.4782,176.8815z"/>
	<path fill="#FFC982" stroke="#FFC982" stroke-width="0.3944" d="M113.2152,194.1284c0.5468-7.5719,9.0862-7.067,14.5548-8.2449
		c-0.7993,9.1703,3.1549,21.2853-3.9962,28.4364C111.6588,218.19,111.9953,201.5741,113.2152,194.1284z"/>
	<path fill="#FFCA78" stroke="#FFCA78" stroke-width="0.3944" d="M251.4433,223.1959
		c-15.3119-2.9446-20.9487-29.9508-5.0058-35.9662C261.7495,192.4458,257.2064,212.1747,251.4433,223.1959z"/>
	<path fill="#EA7777" stroke="#EA7777" stroke-width="0.3944" d="M8.1349,247.5099c-27.7213,3.828-33.4423-44.4635-7.8663-50.7313
		c0.0421,9.0441-0.9255,18.0041-1.8088,27.0062C-0.9934,232.5765,2.7925,240.6532,8.1349,247.5099z"/>
	<path fill="#FFC57D" stroke="#FFC57D" stroke-width="0.3944" d="M294.1401,203.8877c1.893-6.5622,9.2545-3.9121,14.2603-4.5851
		c1.3882,9.6751,0.8833,20.3598-6.8146,27.4689C287.8303,229.7581,290.3963,211.5437,294.1401,203.8877z"/>
	<path fill="#D8A165" stroke="#D8A165" stroke-width="0.3944" d="M-206.6951,203.9719c5.5106-2.2716,11.6102,0.3365,10.8109,7.025
		c-0.1683,6.6464,2.9446,19.8971-6.8988,20.3178C-212.416,227.4866-213.2994,210.9127-206.6951,203.9719z"/>
	<path fill="#FFC17A" stroke="#FFC17A" stroke-width="0.3944" d="M-103.4656,213.3946c4.9217,0.0421,9.8434,0.0842,14.7651,0.1683
		c-0.0841,10.5585,0.1262,22.0424-9.5489,28.8571c-2.5239-4.2487-5.0479-8.4132-7.4877-12.6618
		C-105.0221,224.2896-104.2649,218.8211-103.4656,213.3946z"/>
	<path fill="#FFC480" stroke="#FFC480" stroke-width="0.3944" d="M9.6913,222.5649c4.2907-0.2103,11.9467-5.3844,14.2182,0.9255
		c4.1225,9.8854,0.0421,21.748-9.633,26.6276C11.8367,241.1159,10.3644,231.8614,9.6913,222.5649z"/>
	<path fill="#FFBC80" stroke="#FFBC80" stroke-width="0.3944" d="M420.5898,218.3584c4.9638,0.7992,9.8855,1.6406,14.8492,2.4819
		c-0.7571,10.6847-3.8701,24.8188-17.6676,23.5989c0-5.9733,0.0841-11.9467,0.1682-17.9201
		C418.6127,224.4579,419.9168,220.3775,420.5898,218.3584z"/>
	<path fill="#B54024" stroke="#B54024" stroke-width="0.3944" d="M-1.5402,223.7848c2.1033,2.3557,4.2066,4.7955,6.3519,7.1933
		c1.2199-2.1033,3.6597-6.3099,4.8796-8.4132c0.6731,9.2965,2.1454,18.551,4.5852,27.553c-1.5144-0.631-4.5852-1.935-6.1416-2.6081
		C2.7925,240.6532-0.9934,232.5765-1.5402,223.7848z"/>
	<path fill="#FFCB7F" stroke="#FFCB7F" stroke-width="0.3944" d="M359.0056,260.5924
		c-10.0537-10.7268-6.6884-29.9508,8.9179-32.7272c3.1129,9.0441,3.2811,18.6772-1.3461,27.2586
		C364.6844,256.512,360.8985,259.2463,359.0056,260.5924z"/>
	<path fill="#FFC081" stroke="#FFC081" stroke-width="0.3944" d="M167.0173,232.198c4.9217,0.7151,9.8013,1.3882,14.723,2.1453
		c-1.0517,9.0442-3.7859,17.7097-6.8567,26.2491c-2.0612-0.7572-6.0995-2.3136-8.1187-3.1129
		C165.7974,249.0663,166.4705,240.6111,167.0173,232.198z"/>
	<path fill="#EC7879" stroke="#EC7879" stroke-width="0.3944" d="M49.3173,257.143c0.1262-10.8109,8.2028-19.5606,17.4994-23.9775
		c0.1683,1.3882,0.5048,4.0804,0.673,5.4686c-4.2486,13.9238-4.1224,28.3524,3.9542,40.93
		C58.5297,282.5507,47.6347,269.3841,49.3173,257.143z"/>
	<path fill="#DFA36C" stroke="#DFA36C" stroke-width="0.3944" d="M-168.1628,268.4586c-6.0575-9.7592-7.7401-23.7671,2.6501-31.339
		c9.8434,7.0671,7.4877,19.4765,5.5947,29.6564C-161.9791,267.1967-166.1016,268.038-168.1628,268.4586z"/>
	<path fill="#DAA060" stroke="#DAA060" stroke-width="0.3944" d="M-130.2615,246.0376c3.7859,0.7572,7.5719,1.4723,11.3998,2.2295
		c0,10.5585,3.6176,24.314-9.1283,29.1095C-134.6784,267.9539-137.4127,256.0493-130.2615,246.0376z"/>
	<path fill="#FFC57A" stroke="#FFC57A" stroke-width="0.3944" d="M87.0082,274.8947c-19.5606,2.0192-23.1362-35.3352-0.9675-29.9929
		l1.7247,3.3653C88.144,257.143,87.6813,266.0189,87.0082,274.8947z"/>
	<path fill="#FFC681" stroke="#FFC681" stroke-width="0.3944" d="M-41.0821,251.7585c4.1645-1.5985,8.4973-2.4819,13.0825-2.6081
		c0.5048,8.9179,3.1549,31.0866-11.9046,25.6601C-43.1433,267.7015-44.3212,259.078-41.0821,251.7585z"/>
	<path fill="#FFC47D" stroke="#FFC47D" stroke-width="0.3944" d="M390.7652,278.3021c1.4723-9.2124-3.1129-22.2528,7.2773-27.3428
		c12.4515,0.9254,9.1704,12.5776,8.0346,20.9067C401.0293,274.1796,395.9813,276.4932,390.7652,278.3021z"/>
	<path fill="#D8AC7C" stroke="#D8AC7C" stroke-width="0.3944" d="M-202.3202,260.1717
		c7.9504,9.4228,14.3024,20.1916,14.3865,32.9796C-204.8862,292.1417-209.1349,273.0439-202.3202,260.1717z"/>
	<path fill="#FFC67E" stroke="#FFC67E" stroke-width="0.3944" d="M262.086,268.5848c3.7438,0,7.4877-0.0421,11.2315-0.0421
		c1.9771,10.0958,0.673,26.838-12.9563,26.207C257.8373,285.916,259.1835,277.0822,262.086,268.5848z"/>
	<path fill="#FFC980" stroke="#FFC980" stroke-width="0.3944" d="M422.5669,269.4683c4.7535-0.3365,9.549-0.6731,14.3865-1.0096
		c-0.9254,17.7939-5.3844,37.06-15.3961,51.9933c2.0192-7.4877,4.0804-14.9754,6.1837-22.4211
		c-1.8509-1.8929-5.5948-5.6788-7.4456-7.5298C421.0526,283.4762,421.7677,276.4512,422.5669,269.4683z"/>
	<path fill="#FFCA81" stroke="#FFCA81" stroke-width="0.3944" d="M218.632,271.9081c17.3311-6.7306,12.4094,20.5702,3.0708,26.5435
		C209.7561,297.2737,210.7657,277.1663,218.632,271.9081z"/>
	<path fill="#FFC482" stroke="#FFC482" stroke-width="0.3944" d="M317.6969,312.9222c-14.5127-4.4169-8.6656-30.077,6.6043-28.9413
		C326.1101,293.8664,327.4142,306.5703,317.6969,312.9222z"/>
	<path fill="#F06A69" stroke="#F06A69" stroke-width="0.3944" d="M-11.1733,324.5323c-5.0479-14.5968,1.5564-29.6564,9.5069-41.8134
		c6.4781,6.9409,0.5889,16.8684,1.1778,25.1133c-2.1874,10.1379,5.5527,18.0463,9.9696,26.2911
		C1.9091,333.0296-6.7143,331.5994-11.1733,324.5323z"/>
	<path fill="#FFBD83" stroke="#FFBD83" stroke-width="0.3944" d="M-80.4136,303.6678c3.9542-4.1225,8.7076-7.2774,14.092-9.2124
		c1.3882,10.2641,4.7534,23.3044-7.4456,28.4785C-75.576,316.3716-77.9317,309.9776-80.4136,303.6678z"/>
	<path fill="#FFC87D" stroke="#FFC87D" stroke-width="0.3944" d="M122.5117,297.4841c5.09-0.8413,10.1799-1.6406,15.3119-2.3978
		c2.3136,10.222,1.3461,20.7385-4.7113,29.5722C121.7966,319.6528,122.3855,307.8743,122.5117,297.4841z"/>
	<path fill="#FFC07F" stroke="#FFC07F" stroke-width="0.3944" d="M8.1769,305.1821c2.5239-0.0421,7.5298-0.1683,10.0117-0.2104
		c-0.3786,7.2774,2.7343,15.9009-2.524,22.0425C5.5268,325.1634,7.7142,312.6277,8.1769,305.1821z"/>
	<path fill="#F16C6A" stroke="#F16C6A" stroke-width="0.3944" d="M61.5584,355.9555c-19.4344-7.9504-20.3178-41.6031-0.7151-49.7638
		c-0.9675,11.1475-5.3424,23.9355,1.935,33.9471c3.5335,6.8988,11.5681,8.7497,17.878,12.115
		C77.2069,359.4049,67.658,357.3857,61.5584,355.9555z"/>
	<path fill="#872C23" stroke="#872C23" stroke-width="0.3944" d="M-178.4689,311.7023c4.9217,1.6826,9.8855,3.2391,14.9334,4.459
		c2.9446,7.7821,6.4781,15.312,10.6006,22.5473c-1.4302,2.0612-4.3748,6.1416-5.8472,8.2028
		C-167.3635,336.437-173.2107,324.0696-178.4689,311.7023z"/>
	<path fill="#E29F6D" stroke="#E29F6D" stroke-width="0.3944" d="M-163.5356,316.1613c2.3977-0.9254,7.1932-2.7764,9.591-3.7018
		c10.0537,5.6789,8.8759,19.182,1.0096,26.2491C-157.0574,331.4732-160.591,323.9434-163.5356,316.1613z"/>
	<path fill="#FFC384" stroke="#FFC384" stroke-width="0.3944" d="M360.6881,312.8802c2.566,0.0421,7.6981,0.1682,10.2641,0.2524
		c-0.2524,7.6559-1.3882,15.312-4.0383,22.5473c-2.4819,0-7.4457-0.0841-9.9276-0.1262
		C357.6594,328.2342,353.4528,317.8859,360.6881,312.8802z"/>
	<path fill="#DF9F6F" stroke="#DF9F6F" stroke-width="0.3944" d="M-118.1886,322.1346c12.8721-6.352,11.1474,14.05,9.5069,21.4535
		C-119.9975,350.5711-126.6859,327.3087-118.1886,322.1346z"/>
	<path fill="#FFC183" stroke="#FFC183" stroke-width="0.3944" d="M81.4976,344.5977c-14.8071,4.7114-15.3119-22.0425-3.0287-25.1553
		C82.7596,326.6777,87.8075,337.11,81.4976,344.5977z"/>
	<path fill="#FFC67C" stroke="#FFC67C" stroke-width="0.3944" d="M177.3234,330.9684c4.0383-0.7992,8.1608-1.1357,12.3674-0.9675
		c1.4302,9.2965,2.6922,18.9296-1.5985,27.7213C179.0481,352.3378,172.3176,341.4428,177.3234,330.9684z"/>
	<path fill="#FFBF7D" stroke="#FFBF7D" stroke-width="0.3944" d="M-26.8218,367.6497
		c-13.2087-3.9542-13.2087-26.6697,2.6501-25.8704C-20.8484,349.7718-15.3799,363.6956-26.8218,367.6497z"/>
	<path fill="#FFC685" stroke="#FFC685" stroke-width="0.3944" d="M294.2243,365.252c-7.1512-10.4744,1.7668-26.88,15.1436-23.5989
		C309.6203,350.9918,307.3067,367.9863,294.2243,365.252z"/>
	<path fill="#FFC383" stroke="#FFC383" stroke-width="0.3944" d="M374.696,372.4032c-1.8929-8.3711-2.0191-27.9737,11.2737-23.641
		c6.6464,7.1512,0.3786,17.2049-2.1033,24.8608C381.5948,373.3287,377.0097,372.7397,374.696,372.4032z"/>
	<path fill="#FFC283" stroke="#FFC283" stroke-width="0.3944" d="M237.0989,353.095c3.828-1.3882,7.8242-2.0612,12.0308-1.9771
		c0.3786,7.3615,0.4207,14.723,0.2103,22.0845c-2.7343,0.4206-8.287,1.2199-11.0212,1.6406
		C235.8369,367.8601,233.944,360.2042,237.0989,353.095z"/>
	<path fill="#DEA267" stroke="#DEA267" stroke-width="0.3944" d="M-78.1841,361.424c4.8376-0.2945,9.7172-0.5469,14.5968-0.7993
		c1.0516,8.2028,1.4302,16.4898,1.1778,24.8188c-2.3557,0.3786-7.0671,1.1778-9.4227,1.5564
		c-2.4398-3.2811-4.8796-6.5622-7.2774-9.8434C-78.8151,371.8984-78.5206,366.6823-78.1841,361.424z"/>
	<path fill="#F27879" stroke="#F27879" stroke-width="0.3944" d="M83.1802,363.4432c2.9025-0.1262,8.7076-0.4627,11.6102-0.631
		c-0.5469,3.1549-1.6826,9.4648-2.2716,12.6197c-0.7572,7.2774-3.1549,15.354,0.9255,22.0845
		c4.2486,6.8146,12.6618,8.9601,19.5606,11.9887c-8.1187,11.484-22.9258,2.7343-30.4977-4.7113
		C71.3598,393.0996,75.6505,375.7685,83.1802,363.4432z"/>
	<path fill="#DFA567" stroke="#DFA567" stroke-width="0.3944" d="M-106.4944,396.5069c-10.5585-3.9542-17.2049-21.748-5.0058-27.469
		C-98.1653,369.1221-99.6376,389.0192-106.4944,396.5069z"/>
	<path fill="#FFC285" stroke="#FFC285" stroke-width="0.3944" d="M36.4451,399.9563c-13.2507-4.5851-16.8263-29.6564,1.5144-27.5531
		C41.6613,381.6998,42.6288,391.417,36.4451,399.9563z"/>
	<path fill="#FFC97C" stroke="#FFC97C" stroke-width="0.3944" d="M108.5459,376.4836c13.7555-4.5011,12.157,14.8912,10.3061,23.0941
		C107.0315,408.9163,97.5667,382.2887,108.5459,376.4836z"/>
	<path fill="#FFBC7F" stroke="#FFBC7F" stroke-width="0.3944" d="M335.8694,376.736c2.8184-0.1682,8.4973-0.4627,11.3578-0.5889
		c2.4819,8.3711-0.6731,16.6581-3.1549,24.6085C328.2975,402.7327,331.5366,385.8643,335.8694,376.736z"/>
	<path fill="#CD9E78" stroke="#CD9E78" stroke-width="0.3944" d="M-141.7455,378.2083
		c9.0442,11.8205,16.7422,24.6084,22.9259,38.1536c-6.6043-1.5564-13.1245-3.5756-19.5606-5.6368
		C-143.0075,400.419-143.5123,389.1875-141.7455,378.2083z"/>
	<path fill="#F37478" stroke="#F37478" stroke-width="0.3944" d="M132.0607,391.8376c16.616-6.3519,7.9504,15.1017,10.8109,23.8934
		c2.9446,13.0825,22.2107,9.633,24.7347,22.1266c-18.0042,3.3653-37.9433-7.067-41.561-25.8284
		C127.4334,405.1304,129.4947,398.3578,132.0607,391.8376z"/>
	<path fill="#FFCA85" stroke="#FFCA85" stroke-width="0.3944" d="M152.4205,411.3982c3.0287-7.1512,7.3194-18.3828,17.3732-13.7135
		c7.5719,8.7918,0.5048,22.0425-6.9408,28.7309C159.3193,421.4519,155.8699,416.4461,152.4205,411.3982z"/>
	<path fill="#E0A169" stroke="#E0A169" stroke-width="0.3944" d="M-107.6301,416.4881c2.6501-1.5144,7.9504-4.501,10.6006-6.0154
		c5.4685,6.4361,9.2124,13.9658,11.3157,22.1266c-3.2811,0.1683-9.8013,0.5048-13.0825,0.7151
		C-101.783,427.7197-104.7276,422.0829-107.6301,416.4881z"/>
	<path fill="#FFBF8C" stroke="#FFBF8C" stroke-width="0.3944" d="M-12.5615,416.7826c5.0058-1.2199,9.9696-2.6502,14.9334-3.9962
		c-0.1262,6.8146-0.2945,13.6293-0.4207,20.486c-2.9446-0.1683-8.8338-0.5048-11.7784-0.6731
		C-10.963,427.3831-11.7622,422.0829-12.5615,416.7826z"/>
	<path fill="#FFC182" stroke="#FFC182" stroke-width="0.3944" d="M82.2127,438.9512c-17.1208,0.8414-13.5031-29.9508,2.6922-24.5664
		C92.0982,421.7464,84.1478,431.0008,82.2127,438.9512z"/>
	<path fill="#FFBE83" stroke="#FFBE83" stroke-width="0.3944" d="M210.8078,415.1841c2.6922,0.042,8.0346,0.0841,10.6847,0.0841
		c-0.1262,7.2353,1.0937,14.9754-2.7343,21.5797c-6.3099,4.7114-10.0538-3.8701-14.05-7.2353
		C206.7695,424.8172,208.7887,419.9796,210.8078,415.1841z"/>
	<g>
		<path fill="#BF090D" stroke="#BF090D" stroke-width="1.6589" d="M261.4553,225.7198
			c10.8107-14.9754,11.7365-36.9336,2.1033-52.6664c-5.2582-4.4169-13.5451-3.6597-19.7291-1.8088
			c-15.1015,6.352-13.5872,26.0808-12.8719,39.5419C231.7566,224.8363,249.9293,236.5307,261.4553,225.7198z M246.4375,187.2295
			c15.312,5.2164,10.7691,24.9452,5.0056,35.9664C236.1316,220.2513,230.4944,193.2451,246.4375,187.2295z"/>
		<path fill="#BF090D" stroke="#BF090D" stroke-width="1.6589" d="M314.5417,185.2525c-3.1549-5.5527-9.9691-7.5718-15.9005-6.0154
			c-13.3772,3.9542-15.1857,20.2757-15.4804,32.0541c0.7995,13.0824,14.1767,22.2527,26.5437,17.1208
			C319.9263,216.844,322.4927,198.7136,314.5417,185.2525z M301.5862,226.7714c-13.7556,2.9868-11.1902-15.2278-7.4457-22.8838
			c1.8928-6.5623,9.2543-3.9121,14.2599-4.585C309.7888,208.9777,309.2835,219.6623,301.5862,226.7714z"/>
		<path fill="#BF090D" stroke="#BF090D" stroke-width="0.3944" d="M174.7572,213.8151
			c-21.9582,2.2296-26.7117,37.3544-7.6979,47.4503l-0.2942-3.786c-0.9674-8.4131-0.2948-16.8684,0.2521-25.2816
			c4.9219,0.7153,9.8011,1.3882,14.723,2.1454c-1.0517,9.0443-3.786,17.7098-6.8568,26.249
			c8.96,5.3004,17.0368-5.3422,20.0655-12.7458C202.5211,234.0487,191.6678,211.7118,174.7572,213.8151z"/>
		<path fill="#BF090D" stroke="#BF090D" stroke-width="1.6589" d="M206.5171,269.6365
			c-1.8927,11.5681,2.1033,22.7575,9.1701,31.8438c7.9931,0.0421,18.5933,3.281,23.7257-5.0901
			c6.5199-12.4513,4.8371-29.4039-4.4592-40.0464C225.194,245.3223,206.5592,256.7223,206.5171,269.6365z M221.7028,298.4514
			c-11.9465-1.1777-10.937-21.2853-3.0707-26.5435C235.9631,265.1775,231.0418,292.4782,221.7028,298.4514z"/>
		<path fill="#BF090D" stroke="#BF090D" stroke-width="1.6589" d="M264.7365,254.8293
			c-18.5938,9.7172-19.3507,51.4466,7.4036,49.6797c16.7-3.4073,17.9196-25.1131,14.6809-38.5321
			C285.0536,255.8809,273.8644,251.0014,264.7365,254.8293z M260.3615,294.7496c-2.5244-8.8337-1.1779-17.6674,1.7243-26.1648
			c3.7444,0,7.4879-0.0421,11.2318-0.0421C275.295,278.6386,273.9908,295.3807,260.3615,294.7496z"/>
		<path fill="#BF090D" stroke="#BF090D" stroke-width="1.6589" d="M226.751,156.4376
			c4.5429-16.1955-13.8398-34.9567-29.1097-23.7252c-10.6428,9.5069-11.2739,27.3428-5.0061,39.3735
			C204.8344,185.4207,226.4562,172.8431,226.751,156.4376z M204.4559,171.8335c-6.7304-2.2296-7.4457-9.9696-10.3901-15.2699
			c1.2201-2.9868,3.6176-8.8758,4.8372-11.8626C214.9724,141.7564,214.1734,165.0189,204.4559,171.8335z"/>
		<path fill="#BF090D" stroke="#BF090D" stroke-width="1.6589" d="M450.3302,67.805c0.4211-15.4802-0.5042-31.0446-2.9444-46.3566
			c-2.1875-0.589-6.4783-1.8088-8.6658-2.4399c-0.7569-5.9733-1.4717-11.9465-2.1875-17.9201
			c2.8607-2.7762,5.7214-5.5106,8.5816-8.2868c-5.9309-11.526-10.5586-23.7252-15.9852-35.5035l-1.3875-0.3787
			c-12.1997-1.4722-24.1041-7.9081-24.9036-21.4113c-8.6232-15.6486-21.8319-28.7731-37.6066-37.1442
			c-3.9961-2.2715-8.0342-1.977-12.0729,0.8835c0.4206,3.3652,1.2201,10.1377,1.5985,13.5451
			c-14.5546,1.5146-31.2546-13.5872-17.9622-26.838c-6.6462-5.7209-14.2598-10.1798-22.463-13.2506
			c-1.2195,1.6825-3.6597,5.0058-4.8798,6.6883c-1.0516,1.4725-3.1549,4.375-4.2066,5.8051
			c-10.4323,2.2717-21.1592-6.8986-13.2082-17.0366c-18.5517-11.3157-41.6036-8.3289-62.2997-7.5718
			c-28.226,1.8088-46.8192,31.0024-75.7605,29.1516c-28.6049-1.2619-58.5136-3.5336-85.5201,8.1187
			c-21.075,6.5201-43.7059,19.5607-65.8325,9.7172c-6.5625,0.5469-13.503,0.2103-19.6449,2.9447
			C-37.4223-74.6718-52.398-54.6066-65.1019-33.195c-21.2008,19.897-29.2776,48.2075-39.163,74.5826
			c-9.2548,18.7193-14.723,39.3735-14.8909,60.3224c-0.0421,15.312,6.2257,30.3714,2.9865,45.6834
			c-5.0477,27.427-7.1094,58.7239,10.4322,82.3649c0.7148-5.4688,1.4722-10.9373,2.2717-16.3636
			c4.9214,0.0421,9.8432,0.0842,14.7651,0.1682c-0.0842,10.5585,0.1258,22.0424-9.549,28.8573
			c-2.2717,3.6597-8.2031,7.1089-5.9314,12.1147c4.964,13.8398,10.4322,27.5951,12.9982,42.1921
			c3.576,2.3136,7.151,4.6692,10.7691,6.9409c3.9539-4.1226,8.7074-7.2776,14.0919-9.2124
			c1.388,10.2641,4.7535,23.3044-7.4457,28.4784c8.4553,35.672,36.4712,62.5518,48.6699,96.6673
			c4.1645-0.9256,8.371-1.8509,12.5355-2.8186c5.0061-1.2198,9.9701-2.6502,14.9336-3.9961
			c-0.1263,6.8146-0.2942,13.6293-0.4206,20.486c-2.9449-0.1684-8.8337-0.5048-11.7781-0.6732
			c3.1549,2.482,6.352,4.9216,9.5906,7.3194c-0.2942,3.4915-0.589,6.9831-0.8832,10.4743
			c11.4839,7.9084,16.6579,20.6966,21.4956,33.19c4.8798,14.008,21.5377,17.794,28.4786,30.2453
			c4.2487,7.1091,7.4036,14.7651,10.8112,22.2948c4.9635,0.2945,9.8848,0.5469,14.8488,1.0098
			c7.0673,1.6825,12.115,6.6884,15.5225,12.8721c1.388,5.7209,2.5238,11.4839,3.7013,17.2048
			c4.2487-0.1682,8.4974-0.3366,12.7461-0.5048c6.5204,14.05,17.6674,26.8801,33.8211,29.2778
			c7.2773,2.0191,11.0212-6.394,15.9852-9.9695c4.5008-2.1875,9.2122-3.8702,13.8814-5.5527
			c-0.8832,7.1512-1.8512,14.3022-2.9444,21.4534c2.4817,0.589,7.4031,1.8088,9.8854,2.3978
			c17.4153-2.8605,37.4802-5.9312,47.1135-22.7996c-1.5559-8.7918,2.8607-23.9775,14.723-17.2889
			c2.5244,4.9216,4.9219,9.9274,7.3615,14.9333c11.6102-7.3194,21.9161-16.3636,33.0641-24.3141
			c6.9825-4.459,14.5125-8.0344,21.7477-12.115c3.1128-2.3557,5.8472-5.0898,8.2026-8.2028
			c2.1875-3.7016,4.3329-7.4455,6.3941-11.2315c-3.4913-13.2506,8.5816-20.2758,19.8549-21.5377
			c26.5016-41.5189,52.2464-84.8887,67.5579-131.6659c8.2026-15.6904,13.0829-32.8534,18.4248-49.6375
			c2.0196-7.4879,4.0807-14.9754,6.1841-22.4211c-1.8512-1.893-5.5951-5.6788-7.4457-7.5297
			c0.7569-7.0251,1.4717-14.0501,2.2712-21.0329c4.7534-0.3366,9.549-0.6732,14.3867-1.0098
			c1.3043-15.1857,6.0993-29.8666,7.1931-45.0944c-1.9349-12.4095-3.4913-25.3658,3.8702-36.4709
			c0.2521-6.0154,0.5048-11.9886,0.7153-18.004v-0.0003C451.6766,135.2784,449.6575,101.4997,450.3302,67.805z M-77.3427,107.2627
			c-12.5355-6.3099-9.7596-30.2032,6.1835-29.0676C-70.5281,87.8702-65.1861,102.7195-77.3427,107.2627z M420.4636,40.2938
			c14.134-0.5469,12.7039,18.9296,8.161,27.7636C417.3508,65.3651,410.1577,47.6134,420.4636,40.2938z M401.4503,25.2763
			c-11.8207,2.6923-16.4905-15.8586-10.5586-23.4304C405.0253-4.2537,408.6855,17.7466,401.4503,25.2763z M403.039,202.2445
			c-2.0463,1.6668-4.2867,2.9683-6.679,3.9044C398.7523,205.2127,400.9922,203.9113,403.039,202.2445z M387.2736,202.2049
			c-1.4722-7.6136-3.0707-15.1852-4.8372-22.7146c0-0.0003,0-0.0005,0-0.0008l0.0421-2.6081
			c4.6693-2.3978,9.5069-3.0289,14.5125-1.893c4.3329,8.2029,0.7148,17.4993-0.4211,26.0387
			C394.2567,201.3217,389.5874,201.9107,387.2736,202.2049z M380.6695-66.3008c7.1515,4.6692,8.0768,13.4611,8.6653,21.2432
			c-9.549,0.1682-20.4018-6.5623-19.9391-17.0366C369.4799-68.0675,376.7151-70.5494,380.6695-66.3008z M370.2368,89.595
			c-2.397-8.1187-4.0803-16.4479-4.6687-24.9029C382.4786,58.8028,382.7728,85.1781,370.2368,89.595z M367.9235,227.8652
			c3.1128,9.044,3.2813,18.6772-1.3459,27.2585c-1.8927,1.3883-5.6793,4.1226-7.572,5.4685
			C348.9518,249.8655,352.3172,230.6414,367.9235,227.8652z M359.0898,165.2292c-0.8832,6.7725-1.0938,13.6714-2.6923,20.3178
			c-2.2712,2.1454-6.8568,6.352-9.1285,8.4974C333.3876,184.9581,341.296,159.3401,359.0898,165.2292z M322.9549-70.3392
			c4.5855,1.0938,13.4193-1.977,14.3451,4.8798c1.598,6.5622,0.6306,13.3348,0.5885,19.9812
			C323.8386-44.721,322.3664-59.7806,322.9549-70.3392z M331.1159,4.58c3.2813,7.8242,10.4743,21.79-0.1258,26.8801
			c-10.6428-2.5238-10.6007-14.9333-11.4844-23.6409C322.4085,7.0199,328.2131,5.3792,331.1159,4.58z M340.7907,70.2867
			c8.1194,5.8051,7.951,16.6581,7.2357,25.5761c-3.2391,3.4494-6.6883,6.7304-10.4743,9.549
			c-2.1875,3.8279-3.9544,9.5909-9.4648,7.1091c-8.4553-6.2259-4.5008-17.7519-2.8186-26.2072
			c-4.2908-2.4396-8.4974-5.0058-12.6198-7.74c-1.8506,0.3363-5.5524,1.0095-7.4036,1.3461
			C306.5075,63.346,330.3164,59.6021,340.7907,70.2867z M301.922,131.5345c11.8628-0.715,9.9701,19.6449,3.576,25.4498
			C291.2376,159.6765,290.7329,135.1942,301.922,131.5345z M291.8687,50.5999c-12.8724,1.304-27.1322-20.2336-12.1571-27.0483
			C291.3218,27.1693,292.6677,40.3359,291.8687,50.5999z M264.6102-120.1449c11.6944-3.9121,19.7286,9.3385,22.0845,18.8875
			C278.2816-88.848,254.6822-109.7127,264.6102-120.1449z M246.7743-54.1858c14.8909-6.7728,15.8168,13.5451,13.8814,23.4725
			C246.5217-27.8107,246.3954-44.5528,246.7743-54.1858z M221.1559-10.4375c9.8017,3.7439,6.5204,14.8072,7.6142,22.8838
			c-2.8186,0.0842-8.4131,0.2524-11.2318,0.3366C215.1408,4.9587,210.6395-6.357,221.1559-10.4375z M194.4442-82.5802
			c1.4722,6.8986,3.6176,13.8395,3.2392,21.0329C181.5303-47.4133,172.6118-89.8996,194.4442-82.5802z M196.5054,22.5
			c17.2469-1.304,30.7077,17.3732,25.0294,33.4845c-2.1033-1.4725-6.3099-4.375-8.371-5.8051
			c-3.8286-5.763-5.2582-14.6391-13.125-16.1955c-11.0628-2.9865-20.6118,5.6369-30.1187,9.8435
			C168.9526,30.6608,184.7273,22.2055,196.5054,22.5z M197.8513,58.2978v0.0003c-0.9253,2.2715-2.7339,6.8146-3.6592,9.0861
			c-3.3655-1.1777-6.6888-2.3557-10.0122-3.6176c0.7153-8.371-4.2908-22.1266,7.7405-23.5567
			C199.6604,42.8179,197.4729,51.9879,197.8513,58.2978z M178.532,54.7737c-0.6244-2.0969-1.1194-4.2579-1.7978-6.277
			C177.413,50.5157,177.9075,52.6768,178.532,54.7737z M147.4566-63.6506c12.0734-2.1454,9.7174,15.6483,7.3615,22.9678
			C141.3994-28.2313,134.5005-59.7385,147.4566-63.6506z M151.7053,10.7217c4.9219,5.7209,3.2392,13.419,3.197,20.2757
			c-6.6041-2.8186-8.9179-9.7172-12.0729-15.5223c-11.1475-5.4267-20.486,2.0191-28.7307,8.8337
			C110.3548,3.5704,140.8104-4.5061,151.7053,10.7217z M139.6324,41.5978c-2.6923,0.2524-8.0768,0.7153-10.7686,0.9256
			c-2.7765-8.96-6.2678-21.2432,3.7855-27.1746C145.3533,18.2092,141.9041,32.4696,139.6324,41.5978z M88.3545-77.9531
			c3.365-2.6502,7.9084-2.0612,11.8202-2.8604c1.178,8.8337,1.2622,17.7937-1.2622,26.3753
			c-2.6918-0.5048-8.0763-1.4725-10.7686-1.9772C87.7655-63.5666,86.377-70.9282,88.3545-77.9531z M82.3388-30.9657
			c12.4092,1.893,6.8988,18.0464,6.6467,26.6277C73.0425,0.3313,70.3502-25.5811,82.3388-30.9657z M83.8537,57.1622
			c11.9039-2.5238,26.459-1.8088,34.9564,8.0766c8.3289,8.7919,8.7916,22.0427,5.174,33.0639
			c-7.6136-4.0384-8.5395-13.0406-11.6523-20.1076c-8.0347,3.4494-9.6327,12.2831-12.6618,19.4765
			c-1.3459,2.2296-4.1224,6.6044-5.4682,8.7919c-5.8472-2.2296-10.8533-6.0996-11.0638-12.9142
			c-3.4908-3.2391-7.0247-6.4362-10.5164-9.6751c-1.598,1.4722-4.7529,4.3326-6.3515,5.8051
			C64.2503,76.4284,70.855,61.9578,83.8537,57.1622z M71.3176,163.2101c0.4627,8.7916,0.0421,17.6256-3.1549,25.9545
			c-2.3975-0.0421-7.2352-0.1261-9.6327-0.1682C53.356,178.4379,54.9961,157.7835,71.3176,163.2101z M67.9948,154.2501
			c2.7688,1.3644,4.908,3.1164,6.542,5.1504C72.9028,157.3665,70.763,155.6144,67.9948,154.2501z M66.8168,233.1655
			c0.1684,1.388,0.5048,4.0803,0.6727,5.4685c-4.2487,13.9238-4.1224,28.3523,3.9545,40.9299
			c-12.914,2.9868-23.8094-10.1798-22.1266-22.4209C49.4436,246.3321,57.5204,237.5824,66.8168,233.1655z M78.4691,319.4425
			c4.2908,7.2352,9.3385,17.6674,3.0286,25.1552C66.6905,349.3091,66.1857,322.5553,78.4691,319.4425z M86.0406,244.9018
			l1.7248,3.3652c0.3784,8.8761-0.0842,17.7519-0.7569,26.6277C67.4474,276.9138,63.8724,239.5593,86.0406,244.9018z
			 M44.3112,60.1911c7.6142,9.0019,2.5244,23.5988-3.7855,32.3904C26.3074,87.0709,24.9195,56.1527,44.3112,60.1911z
			 M56.973,130.7352c9.6753-3.281,23.4309,4.0805,15.6905,15.1859l-4.3745,0.2942c-9.9696,0.2105-21.7903,1.8091-26.0811,12.3673
			c-6.9404,11.6523,2.5244,23.7673,8.9605,33.1479c-4.6276,1.7248-10.9375,2.0612-13.5872-3.1128
			C21.3435,169.646,31.4814,135.026,56.973,130.7352z M10.7428-31.891c12.0313,2.7344,11.1896,14.9754,8.75,24.356
			C17.7259-2.2347,7.9247-2.2768,6.831-7.8295C2.1612-15.8639,5.4846-25.1185,10.7428-31.891z M0.8995,129.0948
			c3.8281,0.1261,7.6557,0.2103,11.4839,0.3363c1.0938,8.834,0.7574,17.794-1.8506,26.3753
			c-2.8186-0.1682-8.4132-0.5048-11.2317-0.6729C-3.9802,146.468-2.7602,137.4659,0.8995,129.0948z M-23.2883,42.1868
			c2.566,0.6732,7.74,2.0612,10.3064,2.7344c-0.3369,6.6044-0.7153,13.2087-0.9674,19.8128
			C-29.724,74.7036-31.8272,50.3897-23.2883,42.1868z M-37.1697-31.1759c1.3038,10.5164-4.1645,19.7289-10.9796,27.1746
			C-63.0407-11.0684-52.3138-43.5433-37.1697-31.1759z M-49.3273,193.2451c-4.3745-8.834-9.5906-22.7156,0.8837-29.4882
			c6.1835-5.0479,11.4418,3.4913,10.2222,9.2964C-36.4549,181.761-41.082,190.1321-49.3273,193.2451z M-41.082,251.7585
			c4.1645-1.5985,8.4969-2.482,13.0824-2.6081c0.5048,8.9179,3.1549,31.0867-11.9049,25.66
			C-43.1432,267.7014-44.3212,259.0779-41.082,251.7585z M-26.8217,367.6497c-13.2087-3.9542-13.2087-26.6696,2.6497-25.8703
			C-20.8486,349.7717-15.3799,363.6955-26.8217,367.6497z M-11.1733,324.5323c-5.0477-14.5967,1.5564-29.6563,9.5069-41.8134
			c6.4783,6.9409,0.589,16.8684,1.178,25.1134c-2.1875,10.1378,5.5525,18.0461,9.9696,26.2911
			C1.9091,333.0296-6.7141,331.5993-11.1733,324.5323z M15.6647,327.0143c-10.138-1.8509-7.9505-14.3867-7.4878-21.8322
			c2.5238-0.0421,7.5299-0.1684,10.0117-0.2103C17.8101,312.2491,20.9229,320.8726,15.6647,327.0143z M14.2767,250.1179
			c-1.5148-0.6308-4.5855-1.9349-6.1414-2.6081c-27.7217,3.8281-33.4426-44.4636-7.8668-50.7313
			c0.0421,9.0443-0.9253,18.0043-1.8085,27.0062c2.1033,2.3557,4.2066,4.7956,6.352,7.1933
			c1.2201-2.1033,3.6592-6.3099,4.8793-8.4132c4.2908-0.2103,11.9471-5.3843,14.2188,0.9256
			C28.0323,233.3758,23.9515,245.2384,14.2767,250.1179z M37.9592,372.4031c3.7023,9.2966,4.6698,19.0138-1.5138,27.553
			C23.1941,395.3712,19.6191,370.2999,37.9592,372.4031z M48.7704,484.6346c-12.4513,7.6981-19.3081-19.9812-6.3941-23.3044
			C53.8181,459.8578,52.2201,477.5255,48.7704,484.6346z M60.8433,306.1917c-0.9674,11.1476-5.3424,23.9355,1.9354,33.9471
			c3.5329,6.8989,11.5681,8.7498,17.878,12.115c-3.4497,7.1512-12.9987,5.1319-19.098,3.7018
			C42.1237,348.005,41.2405,314.3524,60.8433,306.1917z M82.2125,438.9512c-17.1205,0.8414-13.5029-29.9508,2.6928-24.5665
			C92.0984,421.7462,84.1479,431.0008,82.2125,438.9512z M82.5073,404.7939c-11.1475-11.6944-6.8567-29.0255,0.6727-41.3507
			c2.9028-0.1261,8.7079-0.4626,11.6102-0.6308c-0.5464,3.1549-1.6822,9.4648-2.2712,12.6197
			c-0.7574,7.2773-3.1549,15.3539,0.9253,22.0845c4.2487,6.8146,12.6618,8.9601,19.5607,11.9886
			C104.8865,420.9891,90.0793,412.2396,82.5073,404.7939z M108.5457,376.4837c13.7556-4.5011,12.1571,14.8912,10.3064,23.0941
			C107.0314,408.9162,97.5666,382.2888,108.5457,376.4837z M103.2875,513.4077c-12.7461,2.8605-10.6007-12.4516-11.7781-20.2757
			C105.8961,482.321,112.9207,504.5738,103.2875,513.4077z M116.7489,572.4259c-11.7365-8.2869-3.7439-28.9832,11.1054-24.23
			C128.0643,556.7775,129.3686,573.2673,116.7489,572.4259z M121.965,462.8025c0.0837-7.656-2.8607-23.683,10.138-19.5604
			C140.1372,449.9724,134.2905,466.7146,121.965,462.8025z M122.5119,297.484c5.0898-0.8414,10.1796-1.6406,15.3115-2.3978
			c2.3138,10.2219,1.3464,20.7384-4.7108,29.5724C121.7966,319.6528,122.3855,307.8744,122.5119,297.484z M153.9349,533.6835
			c-9.3806,0.2103-8.2026-12.4516-6.8146-18.7614c1.388-6.6044,10.0117-3.4073,14.6388-4.5011
			C160.4553,518.1191,163.5681,530.7388,153.9349,533.6835z M126.0452,412.0291c1.388-6.8986,3.4492-13.6714,6.0156-20.1915
			c16.6158-6.352,7.95,15.1017,10.8107,23.8933c2.9449,13.0826,22.2108,9.6332,24.7347,22.1266
			C149.602,441.2227,129.6628,430.7905,126.0452,412.0291z M162.8528,426.4157c-3.5334-4.9637-6.9831-9.9695-10.4322-15.0175
			c3.0286-7.1512,7.3194-18.3828,17.3732-13.7135C177.3658,406.4766,170.2985,419.7271,162.8528,426.4157z M174.3788,463.812
			c3.0712,0.2524,9.1706,0.7153,12.1992,0.9677c-0.0842,8.4131-1.3043,16.8684-7.3194,23.3044
			C172.3176,481.4376,172.0655,472.4775,174.3788,463.812z M197.0523,582.9002c-18.2148,4.7956-17.7516-29.1094,0.3369-24.3139
			C199.1135,566.6208,198.3566,574.8237,197.0523,582.9002z M188.0923,357.7222c-9.0442-5.3846-15.7747-16.2794-10.7686-26.7538
			c4.0382-0.7993,8.1605-1.1359,12.3671-0.9677C191.1214,339.2974,192.3831,348.9304,188.0923,357.7222z M213.1638,545.5039
			c-12.1997-5.5527-11.316-30.2874,5.3003-25.1555C219.0105,528.8037,224.6898,542.2227,213.1638,545.5039z M195.1174,436.6801
			c7.0673,3.87,13.8398,8.7074,21.6635,10.9789c11.0217,1.977,16.1957-9.1282,22.4635-15.7747l3.0707-3.4073
			c1.1359,5.8891,0.6311,11.6102-1.5564,17.0787C232.8082,466.8409,196.2954,458.1335,195.1174,436.6801z M204.7086,429.6128
			c2.0612-4.7956,4.0802-9.6332,6.0993-14.4288c2.6923,0.0421,8.0332,0.0842,10.6849,0.0842
			c-0.1263,7.2354,1.0938,14.9754-2.7344,21.5798C212.4485,441.5593,208.7046,432.978,204.7086,429.6128z M237.099,353.0951
			c3.8276-1.3882,7.8242-2.0614,12.0307-1.9772c0.3784,7.3615,0.4206,14.723,0.21,22.0845
			c-2.7339,0.4205-8.2868,1.2198-11.0207,1.6406C235.8368,367.86,233.9441,360.2042,237.099,353.0951z M248.4144,492.0382
			c-9.3385-3.1549-10.937-15.9007-5.5525-23.1362c2.7344-0.0421,8.2452-0.2103,10.9791-0.2524
			C253.799,476.7683,252.0747,484.7188,248.4144,492.0382z M273.9066,415.6048c2.2717-0.0842,6.8146-0.2103,9.0858-0.2945
			c2.0196,8.7916-0.21,17.3311-5.6783,24.356c-2.0612,0.1263-6.1419,0.3787-8.2031,0.5048
			C267.3019,431.4216,268.1436,422.6718,273.9066,415.6048z M275.7572,539.6989c-4.9635-7.3615-5.4266-15.8168-1.977-23.8094
			c2.7765-0.4205,8.2868-1.2198,11.0633-1.6404C288.419,524.0923,283.1608,533.3047,275.7572,539.6989z M294.2246,365.2519
			c-7.1515-10.4743,1.7664-26.8799,15.1431-23.5988C309.6204,350.9918,307.3065,367.9863,294.2246,365.2519z M299.4829,482.8258
			c-2.0617-9.8014,0.6306-29.0252,14.8067-24.3139C320.8095,467.9346,311.3031,484.5925,299.4829,482.8258z M290.9013,330.8421
			c-8.5816,14.6391-2.6507,33.2321-5.2582,49.4273c-5.2161,8.9179-11.4418,19.2241-22.4214,21.3695
			c-8.7916,0.7151-22.463,4.0803-24.8605-7.5718c5.6367-0.0421,11.2733-0.0421,16.9526,0.0421
			c6.8141-7.6139,14.723-14.8914,18.4664-24.6086c4.5855-15.3539-8.1184-31.8017-23.052-34.3677
			c-19.3923-1.6827-16.7,31.7175-36.3028,25.66c-7.6136-7.656,2.4396-15.7326,4.3329-23.6831
			c2.1033-10.3059,0.3363-23.767-10.2222-28.7729c-6.9825-4.7534-15.2699-0.1263-22.0003,2.7341
			c-8.5395,4.5432-18.8875,10.9794-19.1822,21.8743c-1.2196,16.7423,15.2704,26.4174,20.4865,41.0562
			c-21.1171,4.1645-36.6396-13.0824-47.4503-28.6468c-2.1033-20.0233,15.901-35.083,15.0173-54.4331
			c-4.7113-21.5377-37.7329-17.6256-45.515-0.5048c-0.6311,12.9142,6.2678,24.7768,9.2122,37.1442l1.2201,4.2905
			c-5.3003-0.5887-12.325,1.3882-15.6062-4.2484c-10.8533-12.2413-14.0503-29.1097-12.4513-44.9683
			c5.5104-10.6849,14.1335-19.2662,20.0649-29.6566c-0.1679-6.2678-1.1353-12.4513-1.8512-18.6772
			c-0.2521-2.4396-0.7569-7.3194-1.0095-9.8011c6.4362,0.8411,12.8724,2.3136,19.3928,1.7667
			c15.7747-8.7498,23.5567-31.297,14.5546-47.2819c-8.6658-10.138-26.628-11.8626-36.0086-1.7667
			c-7.74,7.4455-7.5715,19.0135-9.8848,28.815c-2.2306-0.5048-6.6888-1.5564-8.9184-2.0612
			c-5.8046-18.9296,6.0577-36.3449,22.5898-44.7159c17.9201-3.786,33.5263,8.4132,50.9411,8.5813
			c21.5803-5.8472,22.1687-49.89-4.0803-48.9646c-11.2733-1.0935-14.8493,11.7365-20.5281,18.8456
			c-2.6923,8.7076-15.3962,5.5527-16.1952-2.482c-9.1701-28.2681,23.0941-53.5075,49.4273-50.7313
			c13.4187,2.7765,20.4018,16.027,31.3388,22.968c7.4036,2.4399,16.1536-0.7571,22.7999,3.8279
			c9.8853,9.4227,18.2985,25.9548,34.5363,22.8838c21.1171-1.5143,26.5432-32.012,12.1987-44.9262
			c-11.9886-14.0919-31.5914-3.4073-46.8192-2.8604c10.6007-24.3981,49.5536-28.6468,65.8752-7.656
			c10.0959,10.7688,14.8493,29.7826,2.9865,41.0984c-11.6944,10.6425-7.6979,28.0578,0.5474,39.5417
			c14.0493,2.9025,24.8184-5.763,36.176-12.2831l3.9966,1.8088c-0.0842,2.2296-0.21,6.6886-0.2942,8.96
			c-8.8763,23.6409,15.8168,42.4866,12.7455,66.0012c0,17.4995-14.0919,29.6984-27.0906,39.1211
			c-13.2082,8.6234-17.7516,25.6603-16.1105,40.6357c2.3975,14.3443,24.1036,14.8491,31.4651,4.5429
			c5.174-12.5355,4.3745-27.9736,15.4799-37.5226c2.1454,1.893,6.4783,5.679,8.6237,7.5718
			c-0.4211,9.0021,0.7569,18.4669-2.2717,27.1325c-6.3941,9.7593-15.312,17.4995-22.9677,26.249
			C319.632,337.9513,303.8574,322.6814,290.9013,330.8421z M123.774,214.3199c-12.1155,3.8702-11.7786-12.7458-10.5585-20.1915
			c0.5464-7.5718,9.0858-7.067,14.5546-8.2447C126.9711,195.0539,130.925,207.1689,123.774,214.3199z M158.0572,131.2821
			c8.7921,9.3387,7.6563,23.1362-0.1684,32.7273C145.2691,156.7318,144.1332,137.5919,158.0572,131.2821z M255.9444,96.1572
			c1.7248,10.4322,4.375,29.0252-12.0729,25.7021C240.6745,111.3429,240.0855,92.5397,255.9444,96.1572z M317.6967,312.9221
			c-14.5125-4.4169-8.6653-30.0769,6.6046-28.9413C326.1098,293.8664,327.4141,306.5704,317.6967,312.9221z M335.8694,376.7361
			c2.8181-0.1684,8.4974-0.4629,11.3576-0.589c2.4822,8.3711-0.6727,16.6581-3.1549,24.6084
			C328.2973,402.7327,331.5365,385.8643,335.8694,376.7361z M334.6493,451.6973c-4.5008-10.0538,0.8832-30.7082,14.9757-23.683
			C353.4526,438.3623,345.7552,450.7296,334.6493,451.6973z M366.9139,335.6798c-2.4818,0-7.4457-0.0842-9.9275-0.1263
			c0.6727-7.3194-3.5339-17.6677,3.7018-22.6733c2.5659,0.0419,7.6979,0.1682,10.2643,0.2524
			C370.7,320.7884,369.5641,328.4444,366.9139,335.6798z M383.8665,373.623c-2.2717-0.2942-6.8567-0.8832-9.1706-1.2198
			c-1.8927-8.371-2.0191-27.9736,11.2739-23.6409C392.6161,355.9134,386.3483,365.9672,383.8665,373.623z M406.0769,271.8661
			c-5.0477,2.3136-10.0954,4.6271-15.3115,6.4359c1.4722-9.2124-3.1128-22.2527,7.2773-27.3428
			C410.494,251.8848,407.2128,263.5369,406.0769,271.8661z M410.2835,134.1846c-9.549-6.6462-6.2678-21.2011-6.4778-31.3391
			C422.2726,98.4287,422.819,128.7161,410.2835,134.1846z M416.9302,171.1185c2.1033-0.0842,6.2678-0.2945,8.3289-0.3787
			c6.352,9.5069,6.352,29.9929-8.2448,30.9185C415.7522,191.5203,414.869,181.2141,416.9302,171.1185z M417.7713,244.4391
			c0-5.9733,0.0842-11.9468,0.1684-17.9201c0.6727-2.0612,1.977-6.1417,2.6502-8.1608c4.964,0.7993,9.8853,1.6406,14.8488,2.482
			C434.6818,231.5249,431.569,245.6589,417.7713,244.4391z"/>
	</g>
	<path fill="#FFC67E" stroke="#FFC67E" stroke-width="0.3944" d="M273.9065,415.6048c2.2715-0.0842,6.8146-0.2104,9.0862-0.2945
		c2.0192,8.7917-0.2103,17.3311-5.6788,24.3561c-2.0612,0.1262-6.1416,0.3786-8.2028,0.5048
		C267.3021,431.4215,268.1434,422.6718,273.9065,415.6048z"/>
	<path fill="#883415" stroke="#883415" stroke-width="0.3944" d="M-118.8196,416.3619c2.8184,0.0421,8.4132,0.0841,11.1895,0.1262
		c2.9025,5.5948,5.8471,11.2316,8.8338,16.8263c-1.1358,1.5144-3.3232,4.5431-4.459,6.0995
		C-111.374,434.2399-114.3607,424.3545-118.8196,416.3619z"/>
	<path fill="#E2A36D" stroke="#E2A36D" stroke-width="0.3944" d="M-55.1741,422.8401c2.0612,0.5048,6.1837,1.5984,8.2449,2.1453
		c0.673,7.6139,4.9217,16.9105-0.9675,23.4306C-61.2737,449.1312-62.788,430.496-55.1741,422.8401z"/>
	<path fill="#FFBE7F" stroke="#FFBE7F" stroke-width="0.3944" d="M334.6495,451.6972c-4.5011-10.0537,0.8834-30.708,14.9754-23.683
		C353.4528,438.3623,345.7549,450.7297,334.6495,451.6972z"/>
	<path fill="#FB717B" stroke="#FB717B" stroke-width="0.3944" d="M239.2443,431.8842l3.0708-3.4073
		c1.1358,5.8892,0.631,11.6101-1.5564,17.0787c-7.9504,21.2853-44.4635,12.5777-45.6414-8.8759
		c7.067,3.8701,13.8396,8.7076,21.6639,10.9792C227.8024,449.636,232.9765,438.5306,239.2443,431.8842z"/>
	<path fill="#FFC18E" stroke="#FFC18E" stroke-width="0.3944" d="M121.9649,462.8026c0.0841-7.656-2.8605-23.683,10.1378-19.5606
		C140.1373,449.9725,134.2902,466.7147,121.9649,462.8026z"/>
	<path fill="#FFC07F" stroke="#FFC07F" stroke-width="0.3944" d="M299.4825,482.8259c-2.0612-9.8014,0.631-29.0254,14.8071-24.314
		C320.8098,467.9346,311.303,484.5927,299.4825,482.8259z"/>
	<path fill="#E1A16D" stroke="#E1A16D" stroke-width="0.3944" d="M-4.1063,461.5826c12.8721-4.1224,14.8492,24.1037,2.7343,24.7347
		C-8.6494,481.1012-12.898,466.6305-4.1063,461.5826z"/>
	<path fill="#FFC584" stroke="#FFC584" stroke-width="0.3944" d="M42.3764,461.3303c11.4419-1.4723,9.8434,16.1953,6.394,23.3044
		C36.319,492.3327,29.4622,464.6534,42.3764,461.3303z"/>
	<path fill="#DB8B5E" stroke="#DB8B5E" stroke-width="0.3944" d="M-69.0979,462.1716c12.1991-6.2257,20.444,12.2832,15.9429,21.748
		C-64.4286,486.4856-75.7022,472.4356-69.0979,462.1716z"/>
	<path fill="#FFC587" stroke="#FFC587" stroke-width="0.3944" d="M174.3788,463.8121c3.0708,0.2524,9.1703,0.7151,12.1991,0.9676
		c-0.0842,8.4131-1.3041,16.8683-7.3195,23.3044C172.3176,481.4377,172.0652,472.4777,174.3788,463.8121z"/>
	<path fill="#FFC285" stroke="#FFC285" stroke-width="0.3944" d="M242.8619,468.9021c2.7343-0.0421,8.2449-0.2104,10.9792-0.2524
		c-0.042,8.1187-1.7668,16.0691-5.4265,23.3885C239.076,488.8834,237.4775,476.1375,242.8619,468.9021z"/>
	<path fill="#FFC887" stroke="#FFC887" stroke-width="0.3944" d="M91.5093,493.132c14.3865-10.8109,21.4115,11.4419,11.7784,20.2757
		C90.5417,516.2682,92.6871,500.9562,91.5093,493.132z"/>
	<path fill="#DEA36B" stroke="#DEA36B" stroke-width="0.3944" d="M-31.6593,499.526c13.4611-2.2295,18.6351,11.9467,16.7843,23.1362
		c-7.656-0.631-13.5873-4.7534-18.0462-10.7688C-32.5007,507.7709-32.08,503.6484-31.6593,499.526z"/>
	<path fill="#E6A182" stroke="#E6A182" stroke-width="0.3944" d="M315.7199,523.2932c-3.4915-13.2507,8.5814-20.2757,19.855-21.5377
		c-5.4685,12.9562-14.092,25.2815-26.249,32.7692C311.5133,530.8229,313.6586,527.0791,315.7199,523.2932z"/>
	<path fill="#E1A26F" stroke="#E1A26F" stroke-width="0.3944" d="M30.9345,512.3561c13.9658-3.0287,16.4057,13.2927,15.4802,23.6409
		c-2.2716,0.6731-6.7726,2.0192-9.0441,2.6922C29.7567,531.7905,27.9899,521.9471,30.9345,512.3561z"/>
	<path fill="#FFC088" stroke="#FFC088" stroke-width="0.3944" d="M147.1202,514.9221c1.3882-6.6044,10.0117-3.4074,14.6389-4.5011
		c-1.304,7.6981,1.8088,20.3178-7.8242,23.2624C144.5542,533.8937,145.7321,521.2319,147.1202,514.9221z"/>
	<path fill="#D4B07C" stroke="#D4B07C" stroke-width="0.3944" d="M-53.197,511.0521c11.1895,7.067,19.5185,17.1628,25.0712,29.1095
		c-5.763-1.0938-11.6102-1.8509-17.1628-3.7859C-52.6081,530.3181-52.8184,519.7596-53.197,511.0521z"/>
	<path fill="#FFBD83" stroke="#FFBD83" stroke-width="0.3944" d="M273.7803,515.8896c2.7763-0.4207,8.287-1.22,11.0633-1.6406
		c3.5756,9.8434-1.6826,19.0558-9.0862,25.4498C270.7936,532.3373,270.3309,523.8821,273.7803,515.8896z"/>
	<path fill="#FFBF8C" stroke="#FFBF8C" stroke-width="0.3944" d="M213.1635,545.5038
		c-12.1991-5.5526-11.3157-30.2874,5.3003-25.1553C219.0106,528.8038,224.6895,542.2227,213.1635,545.5038z"/>
	<path fill="#ECAB6E" stroke="#ECAB6E" stroke-width="0.3944" d="M74.5147,537.1328c7.067,1.6826,12.1149,6.6885,15.5222,12.8721
		c-4.1224,4.2486-6.2678,17.7518-14.723,12.9142C66.5643,556.9457,72.5376,545.1253,74.5147,537.1328z"/>
	<path fill="#E39D6D" stroke="#E39D6D" stroke-width="0.3944" d="M8.5135,544.6205c12.3673-5.0059,22.6735,12.2411,16.1112,21.4535
		C12.9724,568.8083,6.4102,554.4639,8.5135,544.6205z"/>
	<path fill="#ECCF9B" stroke="#ECCF9B" stroke-width="0.3944" d="M279.3751,554.8425c6.9828-4.459,14.5127-8.0345,21.748-12.1149
		c2.3136,7.6139,2.1874,16.1953-4.2907,21.79c-7.7401,4.1224-16.8684,4.6273-25.3657,6.436
		C275.0002,566.074,277.3138,560.4793,279.3751,554.8425z"/>
	<path fill="#FFC37A" stroke="#FFC37A" stroke-width="0.3944" d="M116.7487,572.426c-11.7364-8.287-3.7439-28.9833,11.1054-24.2299
		C128.0644,556.7775,129.3685,573.2673,116.7487,572.426z"/>
	<path fill="#FFC67D" stroke="#FFC67D" stroke-width="0.3944" d="M197.0523,582.9003c-18.2145,4.7955-17.7518-29.1095,0.3365-24.314
		C199.1135,566.6209,198.3563,574.8237,197.0523,582.9003z"/>
	<path fill="#883415" stroke="#883415" stroke-width="0.3944" d="M246.3113,579.1565c11.6102-7.3194,21.9163-16.3636,33.0638-24.314
		c-2.0612,5.6368-4.3749,11.2316-7.9084,16.1112l-4.6273,2.1033c-6.0575,2.2295-11.2736,6.0995-16.2794,10.1379
		c-7.2353,5.3424-15.3961,9.2545-23.8092,12.4094c-22.8417,9.0021-46.6509,15.2699-71.0911,18.1724
		c-2.0192-0.8414-6.0154-2.524-8.0346-3.3653c9.8855-1.7247,19.6447-4.0804,29.4881-6.0995
		c17.4152-2.8605,37.4806-5.9313,47.1136-22.7997c3.4915,2.5239,6.9829,5.09,10.5164,7.698
		c3.5756-7.8663,6.6043-16.2794,4.2066-24.987C241.4737,569.1449,243.8715,574.1507,246.3113,579.1565z"/>
	<path fill="#FFC980" stroke="#FFC980" stroke-width="0.3944" d="M224.2268,581.5122c-1.5564-8.7917,2.8605-23.9775,14.723-17.289
		c2.3978,8.7076-0.631,17.1207-4.2066,24.987C231.2097,586.6022,227.7182,584.0361,224.2268,581.5122z"/>
	<path fill="#DF865F" stroke="#DF865F" stroke-width="0.3944" d="M52.5984,585.3401c-3.8701-6.4781,4.5431-10.3903,8.1607-14.0079
		c4.7535,6.9409,6.8988,15.0175,5.8051,23.4307C60.8012,593.3748,52.9349,593.0803,52.5984,585.3401z"/>
	<path fill="#F6B8BD" stroke="#F6B8BD" stroke-width="0.3944" d="M250.56,583.1948c5.0058-4.0383,10.222-7.9084,16.2794-10.1379
		C271.4667,581.5122,256.7857,588.9578,250.56,583.1948z"/>
	<path fill="#EEC993" stroke="#EEC993" stroke-width="0.3944" d="M15.7488,580.755c14.5127,2.524,25.1133,12.8721,37.3123,20.1074
		c-9.4227-0.042-18.8875,0.5889-28.2261-0.673C19.4085,595.1836,18.3148,587.3173,15.7488,580.755z"/>
	<path fill="#FFBF84" stroke="#FFBF84" stroke-width="0.3944" d="M156.2905,586.0132c4.501-2.1874,9.2124-3.8701,13.8817-5.5527
		c-0.8834,7.1512-1.8509,14.3024-2.9446,21.4536c-2.6502-0.6731-7.9925-2.0192-10.6427-2.6923
		C156.4588,594.805,156.3747,590.4302,156.2905,586.0132z"/>
	<path fill="#DAA26A" stroke="#DAA26A" stroke-width="0.3944" d="M101.7733,613.6505c-2.566-10.0958-3.87-24.7767,10.6847-24.5664
		c2.2716,9.4648-1.0937,18.4669-7.656,25.4077l-2.2295,2.9446L101.7733,613.6505z"/>
	<path fill="#EEB8B7" stroke="#EEB8B7" stroke-width="0.3944" d="M155.6596,613.7767c24.4402-2.9025,48.2494-9.1703,71.0911-18.1724
		c-4.3328,6.7305-10.222,12.6617-18.3407,14.3444c-18.2144,4.5851-37.0179,6.9829-55.7372,8.0766L155.6596,613.7767z"/>
	<path fill="#E6C0A1" stroke="#E6C0A1" stroke-width="0.3944" d="M110.6492,614.3656c10.4323-0.0421,20.9908-0.9255,30.708-5.0059
		c1.5564,0.2944,4.7113,0.7993,6.2678,1.0516c2.0192,0.8413,6.0154,2.5239,8.0346,3.3653l-2.9867,4.2486
		C140.9786,626.9432,123.5213,617.6046,110.6492,614.3656z"/>
</g>
</svg>
